<svg width="375" height="400" viewBox="0 0 375 400" fill="none" xmlns="http://www.w3.org/2000/svg">
<g clip-path="url(#clip0_302_63)">
<path d="M0 16C0 7.16345 7.16344 0 16 0H359C367.837 0 375 7.16344 375 16V400H0V16Z" fill="#3C4E5B"/>
<path d="M200.492 44.6H203.984V45.8H201.812V48.14H203.516V49.34H201.812V53H200.492V44.6ZM204.617 44.6H205.937V53H204.617V44.6ZM207.958 45.8H206.578V44.6H210.658V45.8H209.278V53H207.958V45.8ZM211.297 44.6H212.953L214.237 49.628H214.261V44.6H215.437V53H214.081L212.497 46.868H212.473V53H211.297V44.6ZM216.418 44.6H220.018V45.8H217.738V48.02H219.55V49.22H217.738V51.8H220.018V53H216.418V44.6ZM222.517 53.12C221.877 53.12 221.393 52.94 221.065 52.58C220.737 52.212 220.573 51.688 220.573 51.008V50.528H221.821V51.104C221.821 51.648 222.049 51.92 222.505 51.92C222.729 51.92 222.897 51.856 223.009 51.728C223.129 51.592 223.189 51.376 223.189 51.08C223.189 50.728 223.109 50.42 222.949 50.156C222.789 49.884 222.493 49.56 222.061 49.184C221.517 48.704 221.137 48.272 220.921 47.888C220.705 47.496 220.597 47.056 220.597 46.568C220.597 45.904 220.765 45.392 221.101 45.032C221.437 44.664 221.925 44.48 222.565 44.48C223.197 44.48 223.673 44.664 223.993 45.032C224.321 45.392 224.485 45.912 224.485 46.592V46.94H223.237V46.508C223.237 46.22 223.181 46.012 223.069 45.884C222.957 45.748 222.793 45.68 222.577 45.68C222.137 45.68 221.917 45.948 221.917 46.484C221.917 46.788 221.997 47.072 222.157 47.336C222.325 47.6 222.625 47.92 223.057 48.296C223.609 48.776 223.989 49.212 224.197 49.604C224.405 49.996 224.509 50.456 224.509 50.984C224.509 51.672 224.337 52.2 223.993 52.568C223.657 52.936 223.165 53.12 222.517 53.12ZM226.981 53.12C226.341 53.12 225.857 52.94 225.529 52.58C225.201 52.212 225.037 51.688 225.037 51.008V50.528H226.285V51.104C226.285 51.648 226.513 51.92 226.969 51.92C227.193 51.92 227.361 51.856 227.473 51.728C227.593 51.592 227.653 51.376 227.653 51.08C227.653 50.728 227.573 50.42 227.413 50.156C227.253 49.884 226.957 49.56 226.525 49.184C225.981 48.704 225.601 48.272 225.385 47.888C225.169 47.496 225.061 47.056 225.061 46.568C225.061 45.904 225.229 45.392 225.565 45.032C225.901 44.664 226.389 44.48 227.029 44.48C227.661 44.48 228.137 44.664 228.457 45.032C228.785 45.392 228.949 45.912 228.949 46.592V46.94H227.701V46.508C227.701 46.22 227.645 46.012 227.533 45.884C227.421 45.748 227.257 45.68 227.041 45.68C226.601 45.68 226.381 45.948 226.381 46.484C226.381 46.788 226.461 47.072 226.621 47.336C226.789 47.6 227.089 47.92 227.521 48.296C228.073 48.776 228.453 49.212 228.661 49.604C228.869 49.996 228.973 50.456 228.973 50.984C228.973 51.672 228.801 52.2 228.457 52.568C228.121 52.936 227.629 53.12 226.981 53.12Z" fill="#C1CED7"/>
<path d="M159.32 47.384C159.32 49.08 158.616 50.504 157.208 51.656C155.816 52.792 154.032 53.36 151.856 53.36C150.656 53.36 149.744 53.184 149.12 52.832C149.056 52.8 148.984 52.784 148.904 52.784C148.824 52.784 148.528 52.872 148.016 53.048C147.504 53.224 146.984 53.312 146.456 53.312C145.944 53.312 145.688 53.16 145.688 52.856C145.688 52.44 146.192 51.36 147.2 49.616C148.208 47.856 149.104 46.672 149.888 46.064C150.224 45.808 150.552 45.68 150.872 45.68C151.192 45.68 151.352 45.768 151.352 45.944C151.352 45.976 151.24 46.176 151.016 46.544C150.808 46.896 150.592 47.368 150.368 47.96C150.16 48.552 150.056 49.064 150.056 49.496C150.056 49.912 150.096 50.264 150.176 50.552C150.272 50.84 150.496 51.136 150.848 51.44C151.216 51.728 151.656 51.872 152.168 51.872C152.696 51.872 153.184 51.808 153.632 51.68C154.096 51.552 154.552 51.352 155 51.08C155.448 50.808 155.816 50.408 156.104 49.88C156.392 49.352 156.536 48.744 156.536 48.056C156.536 47.352 156.32 46.64 155.888 45.92C155.456 45.2 154.984 44.592 154.472 44.096C153.96 43.584 153.488 43.008 153.056 42.368C152.624 41.712 152.408 41.08 152.408 40.472C152.408 39.848 152.568 39.272 152.888 38.744C153.224 38.216 153.632 37.8 154.112 37.496C154.608 37.176 155.168 36.912 155.792 36.704C156.848 36.352 157.784 36.176 158.6 36.176C159.416 36.176 160.016 36.216 160.4 36.296C160.8 36.36 161.096 36.424 161.288 36.488C161.496 36.552 161.624 36.584 161.672 36.584C161.72 36.584 161.784 36.56 161.864 36.512C162.344 36.24 162.864 36.104 163.424 36.104C163.984 36.104 164.264 36.24 164.264 36.512C164.264 36.96 163.728 37.968 162.656 39.536C161.6 41.088 160.808 41.864 160.28 41.864C159.848 41.864 159.632 41.768 159.632 41.576C159.632 41.544 159.688 41.432 159.8 41.24C160.152 40.6 160.328 39.872 160.328 39.056C160.328 38.608 160.136 38.264 159.752 38.024C159.368 37.768 158.968 37.64 158.552 37.64C158.152 37.64 157.736 37.704 157.304 37.832C156.888 37.96 156.464 38.216 156.032 38.6C155.616 38.984 155.408 39.448 155.408 39.992C155.408 40.52 155.608 41.08 156.008 41.672C156.424 42.248 156.872 42.784 157.352 43.28C157.848 43.76 158.296 44.376 158.696 45.128C159.112 45.864 159.32 46.616 159.32 47.384ZM171.76 37.664L172.936 37.616C173.096 37.616 173.176 37.648 173.176 37.712C173.176 37.776 173.16 37.856 173.128 37.952C173.096 38.048 173.024 38.168 172.912 38.312C172.816 38.456 172.696 38.584 172.552 38.696C172.168 39 171.688 39.152 171.112 39.152C170.552 39.152 170.136 39.168 169.864 39.2C169.608 39.232 169.384 39.312 169.192 39.44C169 39.568 168.872 39.664 168.808 39.728C168.744 39.792 168.632 39.952 168.472 40.208C168.312 40.464 168.2 40.64 168.136 40.736C167.288 41.92 165.912 44.152 164.008 47.432C162.12 50.712 160.944 53.248 160.48 55.04C160.432 55.2 160.28 55.28 160.024 55.28C159.784 55.28 159.448 55.072 159.016 54.656C158.584 54.24 158.368 53.816 158.368 53.384C158.368 52.952 159.016 51.664 160.312 49.52C161.624 47.376 162.936 45.272 164.248 43.208C165.56 41.128 166.216 39.976 166.216 39.752C166.216 39.512 166.12 39.368 165.928 39.32C165.736 39.256 165.4 39.224 164.92 39.224H164.128C163.92 39.224 163.816 39.128 163.816 38.936C163.816 38.744 163.904 38.544 164.08 38.336C164.272 38.112 164.552 37.92 164.92 37.76C165.304 37.6 165.688 37.44 166.072 37.28C166.472 37.12 166.984 36.76 167.608 36.2C168.248 35.64 168.888 34.92 169.528 34.04C169.928 33.496 170.616 33.224 171.592 33.224C171.928 33.224 172.096 33.328 172.096 33.536C172.096 33.664 171.736 34.248 171.016 35.288C170.296 36.328 169.936 36.984 169.936 37.256C169.936 37.512 170.176 37.64 170.656 37.64C170.848 37.656 171.216 37.664 171.76 37.664ZM172.335 49.952C172.031 49.952 171.799 49.8 171.639 49.496C171.479 49.176 171.399 48.872 171.399 48.584C171.399 48.28 171.495 47.936 171.687 47.552C171.687 47.344 171.607 47.24 171.447 47.24C170.823 47.24 170.111 47.616 169.311 48.368C168.511 49.104 167.839 49.872 167.295 50.672C166.751 51.456 166.255 52.248 165.807 53.048C165.535 53.528 164.975 53.768 164.127 53.768C163.695 53.768 163.479 53.672 163.479 53.48C163.479 53.048 164.263 51.44 165.831 48.656C167.415 45.856 168.463 44.36 168.975 44.168C169.327 43.992 169.719 43.904 170.151 43.904C170.599 43.904 170.823 44 170.823 44.192C170.823 44.368 170.639 44.72 170.271 45.248C169.903 45.776 169.719 46.112 169.719 46.256C169.719 46.4 169.775 46.472 169.887 46.472C169.951 46.472 170.127 46.376 170.415 46.184C171.119 45.656 171.983 45.112 173.007 44.552L173.223 44.264C173.607 43.784 174.159 43.544 174.879 43.544C175.615 43.544 175.983 43.688 175.983 43.976C175.951 44.056 175.871 44.184 175.743 44.36C174.479 46.088 173.415 47.896 172.551 49.784C172.487 49.896 172.415 49.952 172.335 49.952ZM174.47 54.224C174.246 54.224 173.998 54.08 173.726 53.792C173.454 53.52 173.318 53.184 173.318 52.784C173.318 52.56 173.838 51.432 174.878 49.4C175.934 47.352 176.478 45.968 176.51 45.248C176.51 45.024 176.654 44.816 176.942 44.624C177.454 44.32 178.214 44.168 179.222 44.168C179.414 44.168 179.614 44.208 179.822 44.288C180.046 44.352 180.158 44.448 180.158 44.576C180.158 44.64 180.134 44.696 180.086 44.744C179.478 45.512 178.59 46.896 177.422 48.896C176.254 50.896 175.374 52.52 174.782 53.768C174.702 54.072 174.598 54.224 174.47 54.224ZM179.726 42.824C179.022 42.824 178.654 42.544 178.622 41.984V41.96C178.622 41.48 178.854 41.088 179.318 40.784C179.798 40.48 180.27 40.328 180.734 40.328C181.438 40.328 181.806 40.608 181.838 41.168C181.838 41.648 181.606 42.048 181.142 42.368C180.678 42.672 180.206 42.824 179.726 42.824ZM179.584 54.056C179.264 54.056 179.032 53.936 178.888 53.696C178.76 53.472 178.696 53.232 178.696 52.976C178.696 52 178.904 50.848 179.32 49.52C179.736 48.192 180.152 47.104 180.568 46.256L181.192 44.984C181.128 44.984 181.152 44.928 181.264 44.816C181.392 44.688 181.512 44.584 181.624 44.504C181.944 44.328 182.288 44.24 182.656 44.24C183.04 44.24 183.232 44.304 183.232 44.432C183.232 44.464 183.16 44.616 183.016 44.888C182.872 45.16 182.584 45.96 182.152 47.288C181.736 48.616 181.528 49.608 181.528 50.264C181.528 50.92 181.688 51.248 182.008 51.248C182.728 51.248 183.584 50.56 184.576 49.184C185.584 47.808 186.088 46.72 186.088 45.92C185.672 45.76 185.464 45.488 185.464 45.104C185.464 44.704 185.616 44.304 185.92 43.904C186.24 43.488 186.488 43.28 186.664 43.28C186.68 43.28 186.8 43.32 187.024 43.4C187.264 43.464 187.584 43.496 187.984 43.496C188.4 43.496 188.768 43.448 189.088 43.352C189.408 43.256 189.648 43.168 189.807 43.088C189.984 42.992 190.096 42.944 190.144 42.944C190.272 42.944 190.336 43.024 190.336 43.184C190.336 43.264 190.28 43.448 190.168 43.736C190.056 44.024 189.944 44.264 189.832 44.456C189.512 44.968 189.08 45.328 188.536 45.536C188.408 45.6 188.344 45.672 188.344 45.752C188.344 46.152 188.224 46.568 187.984 47C187.264 48.392 185.944 49.92 184.023 51.584C182.12 53.232 180.64 54.056 179.584 54.056ZM190.494 54.368C189.566 54.368 188.886 54.088 188.454 53.528C188.022 52.984 187.806 52.312 187.806 51.512C187.806 50.696 187.982 49.848 188.334 48.968C188.686 48.072 189.166 47.208 189.774 46.376C190.398 45.544 191.206 44.848 192.198 44.288C193.206 43.712 194.286 43.424 195.438 43.424C195.966 43.424 196.366 43.592 196.638 43.928C196.91 44.248 197.046 44.632 197.046 45.08C197.046 46.008 196.718 46.872 196.062 47.672C195.406 48.472 194.678 49.08 193.878 49.496C193.078 49.912 192.366 50.152 191.742 50.216C191.134 50.264 190.726 50.376 190.518 50.552C190.31 50.728 190.206 51.08 190.206 51.608C190.206 52.136 190.326 52.536 190.566 52.808C190.806 53.08 191.046 53.264 191.286 53.36C191.526 53.456 191.646 53.552 191.646 53.648C191.646 53.872 191.526 54.048 191.286 54.176C191.046 54.304 190.782 54.368 190.494 54.368ZM194.718 45.68C194.718 45.184 194.494 44.936 194.046 44.936C193.406 44.936 192.694 45.384 191.91 46.28C191.142 47.176 190.758 47.984 190.758 48.704C190.758 48.88 190.894 48.968 191.166 48.968C191.822 48.968 192.574 48.632 193.422 47.96C194.286 47.288 194.718 46.528 194.718 45.68Z" fill="white"/>
<path d="M295.828 52.7734H301.219V54H294.32V42.625H295.828V52.7734ZM302.32 49.6953C302.32 48.8672 302.482 48.1224 302.805 47.4609C303.133 46.7995 303.586 46.2891 304.164 45.9297C304.747 45.5703 305.411 45.3906 306.156 45.3906C307.307 45.3906 308.237 45.7891 308.945 46.5859C309.659 47.3828 310.016 48.4427 310.016 49.7656V49.8672C310.016 50.6901 309.857 51.4297 309.539 52.0859C309.227 52.737 308.776 53.2448 308.188 53.6094C307.604 53.974 306.932 54.1562 306.172 54.1562C305.026 54.1562 304.096 53.7578 303.383 52.9609C302.674 52.1641 302.32 51.1094 302.32 49.7969V49.6953ZM303.773 49.8672C303.773 50.8047 303.99 51.5573 304.422 52.125C304.859 52.6927 305.443 52.9766 306.172 52.9766C306.906 52.9766 307.49 52.6901 307.922 52.1172C308.354 51.5391 308.57 50.7318 308.57 49.6953C308.57 48.7682 308.349 48.0182 307.906 47.4453C307.469 46.8672 306.885 46.5781 306.156 46.5781C305.443 46.5781 304.867 46.862 304.43 47.4297C303.992 47.9974 303.773 48.8099 303.773 49.8672ZM311.484 49.7031C311.484 48.3854 311.789 47.3385 312.398 46.5625C313.008 45.7812 313.815 45.3906 314.82 45.3906C315.852 45.3906 316.656 45.7552 317.234 46.4844L317.305 45.5469H318.625V53.7969C318.625 54.8906 318.299 55.7526 317.648 56.3828C317.003 57.013 316.133 57.3281 315.039 57.3281C314.43 57.3281 313.833 57.1979 313.25 56.9375C312.667 56.6771 312.221 56.3203 311.914 55.8672L312.664 55C313.284 55.7656 314.042 56.1484 314.938 56.1484C315.641 56.1484 316.188 55.9505 316.578 55.5547C316.974 55.1589 317.172 54.6016 317.172 53.8828V53.1562C316.594 53.8229 315.805 54.1562 314.805 54.1562C313.815 54.1562 313.013 53.7578 312.398 52.9609C311.789 52.1641 311.484 51.0781 311.484 49.7031ZM312.938 49.8672C312.938 50.8203 313.133 51.5703 313.523 52.1172C313.914 52.6589 314.461 52.9297 315.164 52.9297C316.076 52.9297 316.745 52.5156 317.172 51.6875V47.8281C316.729 47.0208 316.065 46.6172 315.18 46.6172C314.477 46.6172 313.927 46.8906 313.531 47.4375C313.135 47.9844 312.938 48.7943 312.938 49.8672ZM320.43 49.6953C320.43 48.8672 320.591 48.1224 320.914 47.4609C321.242 46.7995 321.695 46.2891 322.273 45.9297C322.857 45.5703 323.521 45.3906 324.266 45.3906C325.417 45.3906 326.346 45.7891 327.055 46.5859C327.768 47.3828 328.125 48.4427 328.125 49.7656V49.8672C328.125 50.6901 327.966 51.4297 327.648 52.0859C327.336 52.737 326.885 53.2448 326.297 53.6094C325.714 53.974 325.042 54.1562 324.281 54.1562C323.135 54.1562 322.206 53.7578 321.492 52.9609C320.784 52.1641 320.43 51.1094 320.43 49.7969V49.6953ZM321.883 49.8672C321.883 50.8047 322.099 51.5573 322.531 52.125C322.969 52.6927 323.552 52.9766 324.281 52.9766C325.016 52.9766 325.599 52.6901 326.031 52.1172C326.464 51.5391 326.68 50.7318 326.68 49.6953C326.68 48.7682 326.458 48.0182 326.016 47.4453C325.578 46.8672 324.995 46.5781 324.266 46.5781C323.552 46.5781 322.977 46.862 322.539 47.4297C322.102 47.9974 321.883 48.8099 321.883 49.8672ZM335.156 53.1641C334.594 53.8255 333.768 54.1562 332.68 54.1562C331.779 54.1562 331.091 53.8958 330.617 53.375C330.148 52.849 329.911 52.0729 329.906 51.0469V45.5469H331.352V51.0078C331.352 52.2891 331.872 52.9297 332.914 52.9297C334.018 52.9297 334.753 52.5182 335.117 51.6953V45.5469H336.562V54H335.188L335.156 53.1641ZM340.727 43.5V45.5469H342.305V46.6641H340.727V51.9062C340.727 52.2448 340.797 52.5 340.938 52.6719C341.078 52.8385 341.318 52.9219 341.656 52.9219C341.823 52.9219 342.052 52.8906 342.344 52.8281V54C341.964 54.1042 341.594 54.1562 341.234 54.1562C340.589 54.1562 340.102 53.9609 339.773 53.5703C339.445 53.1797 339.281 52.625 339.281 51.9062V46.6641H337.742V45.5469H339.281V43.5H340.727Z" fill="white"/>
<path d="M293 55.5625H342.898V56.3438H293V55.5625Z" fill="white"/>
<rect x="8" y="83" width="359" height="665" rx="16" fill="white"/>
<path d="M34.3154 122.899H28.4092V129H25.333V114.07H35.0537V116.562H28.4092V120.417H34.3154V122.899ZM43.062 127.872C42.3306 128.761 41.3188 129.205 40.0269 129.205C38.8374 129.205 37.9282 128.863 37.2993 128.18C36.6772 127.496 36.3594 126.495 36.3457 125.175V117.905H39.3091V125.073C39.3091 126.228 39.8354 126.806 40.8882 126.806C41.8931 126.806 42.5835 126.457 42.9595 125.76V117.905H45.9331V129H43.144L43.062 127.872ZM51.2959 129H48.3223V113.25H51.2959V129ZM56.874 129H53.9004V113.25H56.874V129ZM64.749 129V114.07H69.9785C71.79 114.07 73.1641 114.419 74.1006 115.116C75.0371 115.807 75.5054 116.822 75.5054 118.162C75.5054 118.893 75.3174 119.539 74.9414 120.1C74.5654 120.653 74.0425 121.06 73.3726 121.32C74.1382 121.511 74.7397 121.897 75.1772 122.479C75.6216 123.06 75.8438 123.771 75.8438 124.611C75.8438 126.047 75.3857 127.134 74.4697 127.872C73.5537 128.61 72.248 128.986 70.5527 129H64.749ZM67.8252 122.499V126.529H70.4604C71.1851 126.529 71.749 126.358 72.1523 126.016C72.5625 125.667 72.7676 125.189 72.7676 124.581C72.7676 123.213 72.0601 122.52 70.645 122.499H67.8252ZM67.8252 120.325H70.1016C71.6533 120.298 72.4292 119.679 72.4292 118.469C72.4292 117.792 72.231 117.307 71.8345 117.013C71.4448 116.712 70.8262 116.562 69.9785 116.562H67.8252V120.325ZM77.5049 123.35C77.5049 122.25 77.7168 121.269 78.1406 120.407C78.5645 119.546 79.1729 118.879 79.9658 118.408C80.7656 117.936 81.6919 117.7 82.7446 117.7C84.2417 117.7 85.4619 118.158 86.4053 119.074C87.3555 119.99 87.8853 121.234 87.9946 122.807L88.0151 123.565C88.0151 125.268 87.54 126.635 86.5898 127.667C85.6396 128.692 84.3647 129.205 82.7651 129.205C81.1655 129.205 79.8872 128.692 78.9302 127.667C77.98 126.642 77.5049 125.247 77.5049 123.483V123.35ZM80.4683 123.565C80.4683 124.618 80.6665 125.425 81.063 125.985C81.4595 126.539 82.0269 126.816 82.7651 126.816C83.4829 126.816 84.0435 126.542 84.4468 125.996C84.8501 125.442 85.0518 124.56 85.0518 123.35C85.0518 122.318 84.8501 121.518 84.4468 120.951C84.0435 120.383 83.4761 120.1 82.7446 120.1C82.02 120.1 81.4595 120.383 81.063 120.951C80.6665 121.511 80.4683 122.383 80.4683 123.565ZM89.3789 123.371C89.3789 121.641 89.7651 120.264 90.5376 119.238C91.3169 118.213 92.3799 117.7 93.7266 117.7C94.8066 117.7 95.6987 118.104 96.4028 118.91V113.25H99.3765V129H96.7002L96.5566 127.821C95.8184 128.744 94.8682 129.205 93.7061 129.205C92.4004 129.205 91.3511 128.692 90.5581 127.667C89.772 126.635 89.3789 125.203 89.3789 123.371ZM92.3423 123.586C92.3423 124.625 92.5234 125.421 92.8857 125.975C93.248 126.529 93.7744 126.806 94.4648 126.806C95.3809 126.806 96.0269 126.419 96.4028 125.647V121.269C96.0337 120.496 95.3945 120.11 94.4854 120.11C93.0566 120.11 92.3423 121.269 92.3423 123.586ZM105.816 124.806L107.867 117.905H111.045L106.585 130.723L106.339 131.307C105.676 132.756 104.582 133.481 103.058 133.481C102.627 133.481 102.189 133.416 101.745 133.286V131.041L102.196 131.051C102.757 131.051 103.174 130.965 103.447 130.794C103.728 130.624 103.946 130.34 104.104 129.943L104.452 129.031L100.566 117.905H103.755L105.816 124.806ZM112.358 127.544C112.358 127.072 112.515 126.689 112.83 126.396C113.151 126.102 113.551 125.955 114.029 125.955C114.515 125.955 114.915 126.102 115.229 126.396C115.55 126.689 115.711 127.072 115.711 127.544C115.711 128.009 115.554 128.388 115.239 128.682C114.925 128.969 114.521 129.113 114.029 129.113C113.544 129.113 113.144 128.969 112.83 128.682C112.515 128.388 112.358 128.009 112.358 127.544ZM112.358 119.146C112.358 118.674 112.515 118.292 112.83 117.998C113.151 117.704 113.551 117.557 114.029 117.557C114.515 117.557 114.915 117.704 115.229 117.998C115.55 118.292 115.711 118.674 115.711 119.146C115.711 119.611 115.554 119.99 115.239 120.284C114.925 120.571 114.521 120.715 114.029 120.715C113.544 120.715 113.144 120.571 112.83 120.284C112.515 119.99 112.358 119.611 112.358 119.146ZM123.565 129V114.07H128.159C129.472 114.07 130.644 114.368 131.676 114.962C132.715 115.55 133.525 116.391 134.106 117.485C134.688 118.572 134.978 119.809 134.978 121.197V121.884C134.978 123.271 134.691 124.505 134.117 125.585C133.549 126.666 132.746 127.503 131.707 128.098C130.668 128.692 129.496 128.993 128.19 129H123.565ZM126.642 116.562V126.529H128.128C129.332 126.529 130.251 126.136 130.887 125.35C131.522 124.563 131.847 123.439 131.861 121.976V121.187C131.861 119.669 131.546 118.521 130.917 117.741C130.289 116.955 129.369 116.562 128.159 116.562H126.642ZM143.458 129C143.321 128.733 143.222 128.402 143.161 128.005C142.443 128.805 141.51 129.205 140.361 129.205C139.274 129.205 138.372 128.891 137.654 128.262C136.943 127.633 136.588 126.84 136.588 125.883C136.588 124.707 137.022 123.805 137.89 123.176C138.765 122.547 140.026 122.229 141.674 122.222H143.038V121.586C143.038 121.074 142.904 120.664 142.638 120.356C142.378 120.048 141.964 119.895 141.397 119.895C140.898 119.895 140.505 120.014 140.218 120.253C139.938 120.493 139.797 120.821 139.797 121.238H136.834C136.834 120.595 137.032 120 137.429 119.454C137.825 118.907 138.386 118.479 139.11 118.172C139.835 117.857 140.648 117.7 141.551 117.7C142.918 117.7 144.001 118.045 144.801 118.736C145.608 119.419 146.011 120.383 146.011 121.627V126.437C146.018 127.489 146.165 128.286 146.452 128.826V129H143.458ZM141.007 126.939C141.445 126.939 141.848 126.843 142.217 126.652C142.586 126.454 142.86 126.19 143.038 125.862V123.955H141.93C140.447 123.955 139.657 124.468 139.562 125.493L139.551 125.667C139.551 126.037 139.681 126.341 139.941 126.58C140.201 126.819 140.556 126.939 141.007 126.939ZM152.266 124.806L154.317 117.905H157.496L153.035 130.723L152.789 131.307C152.126 132.756 151.032 133.481 149.508 133.481C149.077 133.481 148.64 133.416 148.195 133.286V131.041L148.646 131.051C149.207 131.051 149.624 130.965 149.897 130.794C150.178 130.624 150.396 130.34 150.554 129.943L150.902 129.031L147.016 117.905H150.205L152.266 124.806ZM170.969 129H168.006V117.577L164.468 118.674V116.265L170.651 114.05H170.969V129Z" fill="#3C4E5B"/>
<path d="M59.9902 53V44.4688H62.3984C63.1406 44.4688 63.7969 44.6328 64.3672 44.9609C64.9375 45.2891 65.377 45.7559 65.6855 46.3613C65.998 46.9668 66.1562 47.6621 66.1602 48.4473V48.9922C66.1602 49.7969 66.0039 50.502 65.6914 51.1074C65.3828 51.7129 64.9395 52.1777 64.3613 52.502C63.7871 52.8262 63.1172 52.9922 62.3516 53H59.9902ZM61.1152 45.3945V52.0801H62.2988C63.166 52.0801 63.8398 51.8105 64.3203 51.2715C64.8047 50.7324 65.0469 49.9648 65.0469 48.9688V48.4707C65.0469 47.502 64.8184 46.75 64.3613 46.2148C63.9082 45.6758 63.2637 45.4023 62.4277 45.3945H61.1152ZM71.6094 53C71.5469 52.875 71.4961 52.6523 71.457 52.332C70.9531 52.8555 70.3516 53.1172 69.6523 53.1172C69.0273 53.1172 68.5137 52.9414 68.1113 52.5898C67.7129 52.2344 67.5137 51.7852 67.5137 51.2422C67.5137 50.582 67.7637 50.0703 68.2637 49.707C68.7676 49.3398 69.4746 49.1562 70.3848 49.1562H71.4395V48.6582C71.4395 48.2793 71.3262 47.9785 71.0996 47.7559C70.873 47.5293 70.5391 47.416 70.0977 47.416C69.7109 47.416 69.3867 47.5137 69.125 47.709C68.8633 47.9043 68.7324 48.1406 68.7324 48.418H67.6426C67.6426 48.1016 67.7539 47.7969 67.9766 47.5039C68.2031 47.207 68.5078 46.9727 68.8906 46.8008C69.2773 46.6289 69.7012 46.543 70.1621 46.543C70.8926 46.543 71.4648 46.7266 71.8789 47.0938C72.293 47.457 72.5078 47.959 72.5234 48.5996V51.5176C72.5234 52.0996 72.5977 52.5625 72.7461 52.9062V53H71.6094ZM69.8105 52.1738C70.1504 52.1738 70.4727 52.0859 70.7773 51.9102C71.082 51.7344 71.3027 51.5059 71.4395 51.2246V49.9238H70.5898C69.2617 49.9238 68.5977 50.3125 68.5977 51.0898C68.5977 51.4297 68.7109 51.6953 68.9375 51.8867C69.1641 52.0781 69.4551 52.1738 69.8105 52.1738ZM77.9141 51.3184C77.9141 51.0254 77.8027 50.7988 77.5801 50.6387C77.3613 50.4746 76.9766 50.334 76.4258 50.2168C75.8789 50.0996 75.4434 49.959 75.1191 49.7949C74.7988 49.6309 74.5605 49.4355 74.4043 49.209C74.252 48.9824 74.1758 48.7129 74.1758 48.4004C74.1758 47.8809 74.3945 47.4414 74.832 47.082C75.2734 46.7227 75.8359 46.543 76.5195 46.543C77.2383 46.543 77.8203 46.7285 78.2656 47.0996C78.7148 47.4707 78.9395 47.9453 78.9395 48.5234H77.8496C77.8496 48.2266 77.7227 47.9707 77.4688 47.7559C77.2188 47.541 76.9023 47.4336 76.5195 47.4336C76.125 47.4336 75.8164 47.5195 75.5938 47.6914C75.3711 47.8633 75.2598 48.0879 75.2598 48.3652C75.2598 48.627 75.3633 48.8242 75.5703 48.957C75.7773 49.0898 76.1504 49.2168 76.6895 49.3379C77.2324 49.459 77.6719 49.6035 78.0078 49.7715C78.3438 49.9395 78.5918 50.1426 78.752 50.3809C78.916 50.6152 78.998 50.9023 78.998 51.2422C78.998 51.8086 78.7715 52.2637 78.3184 52.6074C77.8652 52.9473 77.2773 53.1172 76.5547 53.1172C76.0469 53.1172 75.5977 53.0273 75.207 52.8477C74.8164 52.668 74.5098 52.418 74.2871 52.0977C74.0684 51.7734 73.959 51.4238 73.959 51.0488H75.043C75.0625 51.4121 75.207 51.7012 75.4766 51.916C75.75 52.127 76.1094 52.2324 76.5547 52.2324C76.9648 52.2324 77.293 52.1504 77.5391 51.9863C77.7891 51.8184 77.9141 51.5957 77.9141 51.3184ZM81.4941 47.4277C81.9746 46.8379 82.5996 46.543 83.3691 46.543C84.709 46.543 85.3848 47.2988 85.3965 48.8105V53H84.3125V48.8047C84.3086 48.3477 84.2031 48.0098 83.9961 47.791C83.793 47.5723 83.4746 47.4629 83.041 47.4629C82.6895 47.4629 82.3809 47.5566 82.1152 47.7441C81.8496 47.9316 81.6426 48.1777 81.4941 48.4824V53H80.4102V44H81.4941V47.4277ZM92.3867 49.9004C92.3867 50.8691 92.1641 51.6484 91.7188 52.2383C91.2734 52.8242 90.6758 53.1172 89.9258 53.1172C89.125 53.1172 88.5059 52.834 88.0684 52.2676L88.0156 53H87.0195V44H88.1035V47.3574C88.541 46.8145 89.1445 46.543 89.9141 46.543C90.6836 46.543 91.2871 46.834 91.7246 47.416C92.166 47.998 92.3867 48.7949 92.3867 49.8066V49.9004ZM91.3027 49.7773C91.3027 49.0391 91.1602 48.4688 90.875 48.0664C90.5898 47.6641 90.1797 47.4629 89.6445 47.4629C88.9297 47.4629 88.416 47.7949 88.1035 48.459V51.2012C88.4355 51.8652 88.9531 52.1973 89.6562 52.1973C90.1758 52.1973 90.5801 51.9961 90.8691 51.5938C91.1582 51.1914 91.3027 50.5859 91.3027 49.7773ZM93.4707 49.7715C93.4707 49.1504 93.5918 48.5918 93.834 48.0957C94.0801 47.5996 94.4199 47.2168 94.8535 46.9473C95.291 46.6777 95.7891 46.543 96.3477 46.543C97.2109 46.543 97.9082 46.8418 98.4395 47.4395C98.9746 48.0371 99.2422 48.832 99.2422 49.8242V49.9004C99.2422 50.5176 99.123 51.0723 98.8848 51.5645C98.6504 52.0527 98.3125 52.4336 97.8711 52.707C97.4336 52.9805 96.9297 53.1172 96.3594 53.1172C95.5 53.1172 94.8027 52.8184 94.2676 52.2207C93.7363 51.623 93.4707 50.832 93.4707 49.8477V49.7715ZM94.5605 49.9004C94.5605 50.6035 94.7227 51.168 95.0469 51.5938C95.375 52.0195 95.8125 52.2324 96.3594 52.2324C96.9102 52.2324 97.3477 52.0176 97.6719 51.5879C97.9961 51.1543 98.1582 50.5488 98.1582 49.7715C98.1582 49.0762 97.9922 48.5137 97.6602 48.084C97.332 47.6504 96.8945 47.4336 96.3477 47.4336C95.8125 47.4336 95.3809 47.6465 95.0527 48.0723C94.7246 48.498 94.5605 49.1074 94.5605 49.9004ZM104.516 53C104.453 52.875 104.402 52.6523 104.363 52.332C103.859 52.8555 103.258 53.1172 102.559 53.1172C101.934 53.1172 101.42 52.9414 101.018 52.5898C100.619 52.2344 100.42 51.7852 100.42 51.2422C100.42 50.582 100.67 50.0703 101.17 49.707C101.674 49.3398 102.381 49.1562 103.291 49.1562H104.346V48.6582C104.346 48.2793 104.232 47.9785 104.006 47.7559C103.779 47.5293 103.445 47.416 103.004 47.416C102.617 47.416 102.293 47.5137 102.031 47.709C101.77 47.9043 101.639 48.1406 101.639 48.418H100.549C100.549 48.1016 100.66 47.7969 100.883 47.5039C101.109 47.207 101.414 46.9727 101.797 46.8008C102.184 46.6289 102.607 46.543 103.068 46.543C103.799 46.543 104.371 46.7266 104.785 47.0938C105.199 47.457 105.414 47.959 105.43 48.5996V51.5176C105.43 52.0996 105.504 52.5625 105.652 52.9062V53H104.516ZM102.717 52.1738C103.057 52.1738 103.379 52.0859 103.684 51.9102C103.988 51.7344 104.209 51.5059 104.346 51.2246V49.9238H103.496C102.168 49.9238 101.504 50.3125 101.504 51.0898C101.504 51.4297 101.617 51.6953 101.844 51.8867C102.07 52.0781 102.361 52.1738 102.717 52.1738ZM110.193 47.6328C110.029 47.6055 109.852 47.5918 109.66 47.5918C108.949 47.5918 108.467 47.8945 108.213 48.5V53H107.129V46.6602H108.184L108.201 47.3926C108.557 46.8262 109.061 46.543 109.713 46.543C109.924 46.543 110.084 46.5703 110.193 46.625V47.6328ZM110.814 49.7773C110.814 48.8047 111.045 48.0234 111.506 47.4336C111.967 46.8398 112.57 46.543 113.316 46.543C114.059 46.543 114.646 46.7969 115.08 47.3047V44H116.164V53H115.168L115.115 52.3203C114.682 52.8516 114.078 53.1172 113.305 53.1172C112.57 53.1172 111.971 52.8164 111.506 52.2148C111.045 51.6133 110.814 50.8281 110.814 49.8594V49.7773ZM111.898 49.9004C111.898 50.6191 112.047 51.1816 112.344 51.5879C112.641 51.9941 113.051 52.1973 113.574 52.1973C114.262 52.1973 114.764 51.8887 115.08 51.2715V48.3594C114.756 47.7617 114.258 47.4629 113.586 47.4629C113.055 47.4629 112.641 47.668 112.344 48.0781C112.047 48.4883 111.898 49.0957 111.898 49.9004Z" fill="white"/>
<path d="M51 25.8826V27.1954H36.6061L43.2033 30.8053L41.5 31.7374L32 26.539L41.5 21.3406L43.2033 22.2727L36.6061 25.8826H51Z" fill="white"/>
<g filter="url(#filter0_d_302_63)">
<rect x="259" y="99" width="92" height="35" rx="8" fill="#CAE234"/>
</g>
<path d="M294.18 119.016C294.18 118.573 294.023 118.234 293.711 118C293.398 117.76 292.836 117.51 292.023 117.25C291.211 116.984 290.568 116.724 290.094 116.469C288.802 115.771 288.156 114.831 288.156 113.648C288.156 113.034 288.328 112.487 288.672 112.008C289.021 111.523 289.518 111.146 290.164 110.875C290.815 110.604 291.544 110.469 292.352 110.469C293.164 110.469 293.888 110.617 294.523 110.914C295.159 111.206 295.651 111.62 296 112.156C296.354 112.693 296.531 113.302 296.531 113.984H294.188C294.188 113.464 294.023 113.06 293.695 112.773C293.367 112.482 292.906 112.336 292.312 112.336C291.74 112.336 291.294 112.458 290.977 112.703C290.659 112.943 290.5 113.26 290.5 113.656C290.5 114.026 290.685 114.336 291.055 114.586C291.43 114.836 291.979 115.07 292.703 115.289C294.036 115.69 295.008 116.188 295.617 116.781C296.227 117.375 296.531 118.115 296.531 119C296.531 119.984 296.159 120.758 295.414 121.32C294.669 121.878 293.667 122.156 292.406 122.156C291.531 122.156 290.734 121.997 290.016 121.68C289.297 121.357 288.747 120.917 288.367 120.359C287.992 119.802 287.805 119.156 287.805 118.422H290.156C290.156 119.677 290.906 120.305 292.406 120.305C292.964 120.305 293.398 120.193 293.711 119.969C294.023 119.74 294.18 119.422 294.18 119.016ZM300.68 111.469V113.547H302.125V115.203H300.68V119.422C300.68 119.734 300.74 119.958 300.859 120.094C300.979 120.229 301.208 120.297 301.547 120.297C301.797 120.297 302.018 120.279 302.211 120.242V121.953C301.768 122.089 301.312 122.156 300.844 122.156C299.26 122.156 298.453 121.357 298.422 119.758V115.203H297.188V113.547H298.422V111.469H300.68ZM308.281 122C308.177 121.797 308.102 121.544 308.055 121.242C307.508 121.852 306.797 122.156 305.922 122.156C305.094 122.156 304.406 121.917 303.859 121.438C303.318 120.958 303.047 120.354 303.047 119.625C303.047 118.729 303.378 118.042 304.039 117.562C304.706 117.083 305.667 116.841 306.922 116.836H307.961V116.352C307.961 115.961 307.859 115.648 307.656 115.414C307.458 115.18 307.143 115.062 306.711 115.062C306.331 115.062 306.031 115.154 305.812 115.336C305.599 115.518 305.492 115.768 305.492 116.086H303.234C303.234 115.596 303.385 115.143 303.688 114.727C303.99 114.31 304.417 113.984 304.969 113.75C305.521 113.51 306.141 113.391 306.828 113.391C307.87 113.391 308.695 113.654 309.305 114.18C309.919 114.701 310.227 115.435 310.227 116.383V120.047C310.232 120.849 310.344 121.456 310.562 121.867V122H308.281ZM306.414 120.43C306.747 120.43 307.055 120.357 307.336 120.211C307.617 120.06 307.826 119.859 307.961 119.609V118.156H307.117C305.987 118.156 305.385 118.547 305.312 119.328L305.305 119.461C305.305 119.742 305.404 119.974 305.602 120.156C305.799 120.339 306.07 120.43 306.414 120.43ZM316.711 115.664C316.404 115.622 316.133 115.602 315.898 115.602C315.044 115.602 314.484 115.891 314.219 116.469V122H311.961V113.547H314.094L314.156 114.555C314.609 113.779 315.237 113.391 316.039 113.391C316.289 113.391 316.523 113.424 316.742 113.492L316.711 115.664ZM320.898 111.469V113.547H322.344V115.203H320.898V119.422C320.898 119.734 320.958 119.958 321.078 120.094C321.198 120.229 321.427 120.297 321.766 120.297C322.016 120.297 322.237 120.279 322.43 120.242V121.953C321.987 122.089 321.531 122.156 321.062 122.156C319.479 122.156 318.672 121.357 318.641 119.758V115.203H317.406V113.547H318.641V111.469H320.898Z" fill="#3C4E5B"/>
<path d="M25.3203 184V172.625H29.0391C30.2734 172.625 31.2005 172.88 31.8203 173.391C32.4453 173.901 32.7578 174.656 32.7578 175.656C32.7578 176.188 32.6068 176.659 32.3047 177.07C32.0026 177.477 31.5911 177.792 31.0703 178.016C31.6849 178.188 32.1693 178.516 32.5234 179C32.8828 179.479 33.0625 180.052 33.0625 180.719C33.0625 181.74 32.7318 182.542 32.0703 183.125C31.4089 183.708 30.474 184 29.2656 184H25.3203ZM26.8203 178.68V182.773H29.2969C29.9948 182.773 30.5443 182.594 30.9453 182.234C31.3516 181.87 31.5547 181.37 31.5547 180.734C31.5547 179.365 30.8099 178.68 29.3203 178.68H26.8203ZM26.8203 177.477H29.0859C29.7422 177.477 30.2656 177.312 30.6562 176.984C31.0521 176.656 31.25 176.211 31.25 175.648C31.25 175.023 31.0677 174.57 30.7031 174.289C30.3385 174.003 29.7839 173.859 29.0391 173.859H26.8203V177.477ZM40.2812 184C40.1979 183.833 40.1302 183.536 40.0781 183.109C39.4062 183.807 38.6042 184.156 37.6719 184.156C36.8385 184.156 36.1536 183.922 35.6172 183.453C35.0859 182.979 34.8203 182.38 34.8203 181.656C34.8203 180.776 35.1536 180.094 35.8203 179.609C36.4922 179.12 37.4349 178.875 38.6484 178.875H40.0547V178.211C40.0547 177.706 39.9036 177.305 39.6016 177.008C39.2995 176.706 38.8542 176.555 38.2656 176.555C37.75 176.555 37.3177 176.685 36.9688 176.945C36.6198 177.206 36.4453 177.521 36.4453 177.891H34.9922C34.9922 177.469 35.1406 177.062 35.4375 176.672C35.7396 176.276 36.1458 175.964 36.6562 175.734C37.1719 175.505 37.737 175.391 38.3516 175.391C39.3255 175.391 40.0885 175.635 40.6406 176.125C41.1927 176.609 41.4792 177.279 41.5 178.133V182.023C41.5 182.799 41.599 183.417 41.7969 183.875V184H40.2812ZM37.8828 182.898C38.3359 182.898 38.7656 182.781 39.1719 182.547C39.5781 182.312 39.8724 182.008 40.0547 181.633V179.898H38.9219C37.151 179.898 36.2656 180.417 36.2656 181.453C36.2656 181.906 36.4167 182.26 36.7188 182.516C37.0208 182.771 37.4089 182.898 37.8828 182.898ZM47.1562 182.977C47.6719 182.977 48.1224 182.82 48.5078 182.508C48.8932 182.195 49.1068 181.805 49.1484 181.336H50.5156C50.4896 181.82 50.3229 182.281 50.0156 182.719C49.7083 183.156 49.2969 183.505 48.7812 183.766C48.2708 184.026 47.7292 184.156 47.1562 184.156C46.0052 184.156 45.0885 183.773 44.4062 183.008C43.7292 182.237 43.3906 181.185 43.3906 179.852V179.609C43.3906 178.786 43.5417 178.055 43.8438 177.414C44.1458 176.773 44.5781 176.276 45.1406 175.922C45.7083 175.568 46.3776 175.391 47.1484 175.391C48.0964 175.391 48.8828 175.674 49.5078 176.242C50.138 176.81 50.474 177.547 50.5156 178.453H49.1484C49.1068 177.906 48.8984 177.458 48.5234 177.109C48.1536 176.755 47.6953 176.578 47.1484 176.578C46.4141 176.578 45.8438 176.844 45.4375 177.375C45.0365 177.901 44.8359 178.664 44.8359 179.664V179.938C44.8359 180.911 45.0365 181.661 45.4375 182.188C45.8385 182.714 46.4115 182.977 47.1562 182.977ZM54.5 180.086L53.5938 181.031V184H52.1484V172H53.5938V179.258L54.3672 178.328L57 175.547H58.7578L55.4688 179.078L59.1406 184H57.4453L54.5 180.086ZM69.4375 184C69.3542 183.833 69.2865 183.536 69.2344 183.109C68.5625 183.807 67.7604 184.156 66.8281 184.156C65.9948 184.156 65.3099 183.922 64.7734 183.453C64.2422 182.979 63.9766 182.38 63.9766 181.656C63.9766 180.776 64.3099 180.094 64.9766 179.609C65.6484 179.12 66.5911 178.875 67.8047 178.875H69.2109V178.211C69.2109 177.706 69.0599 177.305 68.7578 177.008C68.4557 176.706 68.0104 176.555 67.4219 176.555C66.9062 176.555 66.474 176.685 66.125 176.945C65.776 177.206 65.6016 177.521 65.6016 177.891H64.1484C64.1484 177.469 64.2969 177.062 64.5938 176.672C64.8958 176.276 65.3021 175.964 65.8125 175.734C66.3281 175.505 66.8932 175.391 67.5078 175.391C68.4818 175.391 69.2448 175.635 69.7969 176.125C70.349 176.609 70.6354 177.279 70.6562 178.133V182.023C70.6562 182.799 70.7552 183.417 70.9531 183.875V184H69.4375ZM67.0391 182.898C67.4922 182.898 67.9219 182.781 68.3281 182.547C68.7344 182.312 69.0286 182.008 69.2109 181.633V179.898H68.0781C66.3073 179.898 65.4219 180.417 65.4219 181.453C65.4219 181.906 65.5729 182.26 65.875 182.516C66.1771 182.771 66.5651 182.898 67.0391 182.898ZM74.2891 175.547L74.3359 176.609C74.9818 175.797 75.8255 175.391 76.8672 175.391C78.6536 175.391 79.5547 176.398 79.5703 178.414V184H78.125V178.406C78.1198 177.797 77.9792 177.346 77.7031 177.055C77.4323 176.763 77.0078 176.617 76.4297 176.617C75.9609 176.617 75.5495 176.742 75.1953 176.992C74.8411 177.242 74.5651 177.57 74.3672 177.977V184H72.9219V175.547H74.2891ZM81.3984 179.703C81.3984 178.406 81.7057 177.365 82.3203 176.578C82.9349 175.786 83.7396 175.391 84.7344 175.391C85.724 175.391 86.5078 175.729 87.0859 176.406V172H88.5312V184H87.2031L87.1328 183.094C86.5547 183.802 85.75 184.156 84.7188 184.156C83.7396 184.156 82.9401 183.755 82.3203 182.953C81.7057 182.151 81.3984 181.104 81.3984 179.812V179.703ZM82.8438 179.867C82.8438 180.826 83.0417 181.576 83.4375 182.117C83.8333 182.659 84.3802 182.93 85.0781 182.93C85.9948 182.93 86.6641 182.518 87.0859 181.695V177.812C86.6536 177.016 85.9896 176.617 85.0938 176.617C84.3854 176.617 83.8333 176.891 83.4375 177.438C83.0417 177.984 82.8438 178.794 82.8438 179.867ZM101.891 179.867C101.891 181.154 101.596 182.19 101.008 182.977C100.419 183.763 99.6224 184.156 98.6172 184.156C97.5911 184.156 96.7839 183.831 96.1953 183.18V187.25H94.75V175.547H96.0703L96.1406 176.484C96.7292 175.755 97.5469 175.391 98.5938 175.391C99.6094 175.391 100.411 175.773 101 176.539C101.594 177.305 101.891 178.37 101.891 179.734V179.867ZM100.445 179.703C100.445 178.75 100.242 177.997 99.8359 177.445C99.4297 176.893 98.8724 176.617 98.1641 176.617C97.2891 176.617 96.6328 177.005 96.1953 177.781V181.82C96.6276 182.591 97.2891 182.977 98.1797 182.977C98.8724 182.977 99.4219 182.703 99.8281 182.156C100.24 181.604 100.445 180.786 100.445 179.703ZM103.352 179.695C103.352 178.867 103.513 178.122 103.836 177.461C104.164 176.799 104.617 176.289 105.195 175.93C105.779 175.57 106.443 175.391 107.188 175.391C108.339 175.391 109.268 175.789 109.977 176.586C110.69 177.383 111.047 178.443 111.047 179.766V179.867C111.047 180.69 110.888 181.43 110.57 182.086C110.258 182.737 109.807 183.245 109.219 183.609C108.635 183.974 107.964 184.156 107.203 184.156C106.057 184.156 105.128 183.758 104.414 182.961C103.706 182.164 103.352 181.109 103.352 179.797V179.695ZM104.805 179.867C104.805 180.805 105.021 181.557 105.453 182.125C105.891 182.693 106.474 182.977 107.203 182.977C107.938 182.977 108.521 182.69 108.953 182.117C109.385 181.539 109.602 180.732 109.602 179.695C109.602 178.768 109.38 178.018 108.938 177.445C108.5 176.867 107.917 176.578 107.188 176.578C106.474 176.578 105.898 176.862 105.461 177.43C105.023 177.997 104.805 178.81 104.805 179.867ZM117.781 181.758C117.781 181.367 117.633 181.065 117.336 180.852C117.044 180.633 116.531 180.445 115.797 180.289C115.068 180.133 114.487 179.945 114.055 179.727C113.628 179.508 113.31 179.247 113.102 178.945C112.898 178.643 112.797 178.284 112.797 177.867C112.797 177.174 113.089 176.589 113.672 176.109C114.26 175.63 115.01 175.391 115.922 175.391C116.88 175.391 117.656 175.638 118.25 176.133C118.849 176.628 119.148 177.26 119.148 178.031H117.695C117.695 177.635 117.526 177.294 117.188 177.008C116.854 176.721 116.432 176.578 115.922 176.578C115.396 176.578 114.984 176.693 114.688 176.922C114.391 177.151 114.242 177.451 114.242 177.82C114.242 178.169 114.38 178.432 114.656 178.609C114.932 178.786 115.43 178.956 116.148 179.117C116.872 179.279 117.458 179.471 117.906 179.695C118.354 179.919 118.685 180.19 118.898 180.508C119.117 180.82 119.227 181.203 119.227 181.656C119.227 182.411 118.924 183.018 118.32 183.477C117.716 183.93 116.932 184.156 115.969 184.156C115.292 184.156 114.693 184.036 114.172 183.797C113.651 183.557 113.242 183.224 112.945 182.797C112.654 182.365 112.508 181.898 112.508 181.398H113.953C113.979 181.883 114.172 182.268 114.531 182.555C114.896 182.836 115.375 182.977 115.969 182.977C116.516 182.977 116.953 182.867 117.281 182.648C117.615 182.424 117.781 182.128 117.781 181.758ZM123.07 173.5V175.547H124.648V176.664H123.07V181.906C123.07 182.245 123.141 182.5 123.281 182.672C123.422 182.839 123.661 182.922 124 182.922C124.167 182.922 124.396 182.891 124.688 182.828V184C124.307 184.104 123.938 184.156 123.578 184.156C122.932 184.156 122.445 183.961 122.117 183.57C121.789 183.18 121.625 182.625 121.625 181.906V176.664H120.086V175.547H121.625V173.5H123.07ZM129.852 184.156C128.706 184.156 127.773 183.781 127.055 183.031C126.336 182.276 125.977 181.268 125.977 180.008V179.742C125.977 178.904 126.135 178.156 126.453 177.5C126.776 176.839 127.224 176.323 127.797 175.953C128.375 175.578 129 175.391 129.672 175.391C130.771 175.391 131.625 175.753 132.234 176.477C132.844 177.201 133.148 178.237 133.148 179.586V180.188H127.422C127.443 181.021 127.685 181.695 128.148 182.211C128.617 182.721 129.211 182.977 129.93 182.977C130.44 182.977 130.872 182.872 131.227 182.664C131.581 182.456 131.891 182.18 132.156 181.836L133.039 182.523C132.331 183.612 131.268 184.156 129.852 184.156ZM129.672 176.578C129.089 176.578 128.599 176.792 128.203 177.219C127.807 177.641 127.562 178.234 127.469 179H131.703V178.891C131.661 178.156 131.464 177.589 131.109 177.188C130.755 176.781 130.276 176.578 129.672 176.578ZM138.914 176.844C138.695 176.807 138.458 176.789 138.203 176.789C137.255 176.789 136.612 177.193 136.273 178V184H134.828V175.547H136.234L136.258 176.523C136.732 175.768 137.404 175.391 138.273 175.391C138.555 175.391 138.768 175.427 138.914 175.5V176.844ZM141.82 184H140.375V175.547H141.82V184ZM140.258 173.305C140.258 173.07 140.328 172.872 140.469 172.711C140.615 172.549 140.828 172.469 141.109 172.469C141.391 172.469 141.604 172.549 141.75 172.711C141.896 172.872 141.969 173.07 141.969 173.305C141.969 173.539 141.896 173.734 141.75 173.891C141.604 174.047 141.391 174.125 141.109 174.125C140.828 174.125 140.615 174.047 140.469 173.891C140.328 173.734 140.258 173.539 140.258 173.305ZM143.758 179.695C143.758 178.867 143.919 178.122 144.242 177.461C144.57 176.799 145.023 176.289 145.602 175.93C146.185 175.57 146.849 175.391 147.594 175.391C148.745 175.391 149.674 175.789 150.383 176.586C151.096 177.383 151.453 178.443 151.453 179.766V179.867C151.453 180.69 151.294 181.43 150.977 182.086C150.664 182.737 150.214 183.245 149.625 183.609C149.042 183.974 148.37 184.156 147.609 184.156C146.464 184.156 145.534 183.758 144.82 182.961C144.112 182.164 143.758 181.109 143.758 179.797V179.695ZM145.211 179.867C145.211 180.805 145.427 181.557 145.859 182.125C146.297 182.693 146.88 182.977 147.609 182.977C148.344 182.977 148.927 182.69 149.359 182.117C149.792 181.539 150.008 180.732 150.008 179.695C150.008 178.768 149.786 178.018 149.344 177.445C148.906 176.867 148.323 176.578 147.594 176.578C146.88 176.578 146.305 176.862 145.867 177.43C145.43 177.997 145.211 178.81 145.211 179.867ZM157.352 176.844C157.133 176.807 156.896 176.789 156.641 176.789C155.693 176.789 155.049 177.193 154.711 178V184H153.266V175.547H154.672L154.695 176.523C155.169 175.768 155.841 175.391 156.711 175.391C156.992 175.391 157.206 175.427 157.352 175.5V176.844ZM166.047 182.977C166.562 182.977 167.013 182.82 167.398 182.508C167.784 182.195 167.997 181.805 168.039 181.336H169.406C169.38 181.82 169.214 182.281 168.906 182.719C168.599 183.156 168.188 183.505 167.672 183.766C167.161 184.026 166.62 184.156 166.047 184.156C164.896 184.156 163.979 183.773 163.297 183.008C162.62 182.237 162.281 181.185 162.281 179.852V179.609C162.281 178.786 162.432 178.055 162.734 177.414C163.036 176.773 163.469 176.276 164.031 175.922C164.599 175.568 165.268 175.391 166.039 175.391C166.987 175.391 167.773 175.674 168.398 176.242C169.029 176.81 169.365 177.547 169.406 178.453H168.039C167.997 177.906 167.789 177.458 167.414 177.109C167.044 176.755 166.586 176.578 166.039 176.578C165.305 176.578 164.734 176.844 164.328 177.375C163.927 177.901 163.727 178.664 163.727 179.664V179.938C163.727 180.911 163.927 181.661 164.328 182.188C164.729 182.714 165.302 182.977 166.047 182.977ZM172.477 176.57C173.117 175.784 173.951 175.391 174.977 175.391C176.763 175.391 177.664 176.398 177.68 178.414V184H176.234V178.406C176.229 177.797 176.089 177.346 175.812 177.055C175.542 176.763 175.117 176.617 174.539 176.617C174.07 176.617 173.659 176.742 173.305 176.992C172.951 177.242 172.674 177.57 172.477 177.977V184H171.031V172H172.477V176.57ZM185.062 184C184.979 183.833 184.911 183.536 184.859 183.109C184.188 183.807 183.385 184.156 182.453 184.156C181.62 184.156 180.935 183.922 180.398 183.453C179.867 182.979 179.602 182.38 179.602 181.656C179.602 180.776 179.935 180.094 180.602 179.609C181.273 179.12 182.216 178.875 183.43 178.875H184.836V178.211C184.836 177.706 184.685 177.305 184.383 177.008C184.081 176.706 183.635 176.555 183.047 176.555C182.531 176.555 182.099 176.685 181.75 176.945C181.401 177.206 181.227 177.521 181.227 177.891H179.773C179.773 177.469 179.922 177.062 180.219 176.672C180.521 176.276 180.927 175.964 181.438 175.734C181.953 175.505 182.518 175.391 183.133 175.391C184.107 175.391 184.87 175.635 185.422 176.125C185.974 176.609 186.26 177.279 186.281 178.133V182.023C186.281 182.799 186.38 183.417 186.578 183.875V184H185.062ZM182.664 182.898C183.117 182.898 183.547 182.781 183.953 182.547C184.359 182.312 184.654 182.008 184.836 181.633V179.898H183.703C181.932 179.898 181.047 180.417 181.047 181.453C181.047 181.906 181.198 182.26 181.5 182.516C181.802 182.771 182.19 182.898 182.664 182.898ZM190.117 184H188.672V175.547H190.117V184ZM188.555 173.305C188.555 173.07 188.625 172.872 188.766 172.711C188.911 172.549 189.125 172.469 189.406 172.469C189.688 172.469 189.901 172.549 190.047 172.711C190.193 172.872 190.266 173.07 190.266 173.305C190.266 173.539 190.193 173.734 190.047 173.891C189.901 174.047 189.688 174.125 189.406 174.125C189.125 174.125 188.911 174.047 188.766 173.891C188.625 173.734 188.555 173.539 188.555 173.305ZM193.805 175.547L193.852 176.609C194.497 175.797 195.341 175.391 196.383 175.391C198.169 175.391 199.07 176.398 199.086 178.414V184H197.641V178.406C197.635 177.797 197.495 177.346 197.219 177.055C196.948 176.763 196.523 176.617 195.945 176.617C195.477 176.617 195.065 176.742 194.711 176.992C194.357 177.242 194.081 177.57 193.883 177.977V184H192.438V175.547H193.805ZM205.945 184V176.664H204.609V175.547H205.945V174.68C205.945 173.773 206.188 173.073 206.672 172.578C207.156 172.083 207.841 171.836 208.727 171.836C209.06 171.836 209.391 171.88 209.719 171.969L209.641 173.141C209.396 173.094 209.135 173.07 208.859 173.07C208.391 173.07 208.029 173.208 207.773 173.484C207.518 173.755 207.391 174.146 207.391 174.656V175.547H209.195V176.664H207.391V184H205.945ZM210.414 179.695C210.414 178.867 210.576 178.122 210.898 177.461C211.227 176.799 211.68 176.289 212.258 175.93C212.841 175.57 213.505 175.391 214.25 175.391C215.401 175.391 216.331 175.789 217.039 176.586C217.753 177.383 218.109 178.443 218.109 179.766V179.867C218.109 180.69 217.951 181.43 217.633 182.086C217.32 182.737 216.87 183.245 216.281 183.609C215.698 183.974 215.026 184.156 214.266 184.156C213.12 184.156 212.19 183.758 211.477 182.961C210.768 182.164 210.414 181.109 210.414 179.797V179.695ZM211.867 179.867C211.867 180.805 212.083 181.557 212.516 182.125C212.953 182.693 213.536 182.977 214.266 182.977C215 182.977 215.583 182.69 216.016 182.117C216.448 181.539 216.664 180.732 216.664 179.695C216.664 178.768 216.443 178.018 216 177.445C215.562 176.867 214.979 176.578 214.25 176.578C213.536 176.578 212.961 176.862 212.523 177.43C212.086 177.997 211.867 178.81 211.867 179.867ZM223.312 182.977C223.828 182.977 224.279 182.82 224.664 182.508C225.049 182.195 225.263 181.805 225.305 181.336H226.672C226.646 181.82 226.479 182.281 226.172 182.719C225.865 183.156 225.453 183.505 224.938 183.766C224.427 184.026 223.885 184.156 223.312 184.156C222.161 184.156 221.245 183.773 220.562 183.008C219.885 182.237 219.547 181.185 219.547 179.852V179.609C219.547 178.786 219.698 178.055 220 177.414C220.302 176.773 220.734 176.276 221.297 175.922C221.865 175.568 222.534 175.391 223.305 175.391C224.253 175.391 225.039 175.674 225.664 176.242C226.294 176.81 226.63 177.547 226.672 178.453H225.305C225.263 177.906 225.055 177.458 224.68 177.109C224.31 176.755 223.852 176.578 223.305 176.578C222.57 176.578 222 176.844 221.594 177.375C221.193 177.901 220.992 178.664 220.992 179.664V179.938C220.992 180.911 221.193 181.661 221.594 182.188C221.995 182.714 222.568 182.977 223.312 182.977ZM233.516 183.164C232.953 183.826 232.128 184.156 231.039 184.156C230.138 184.156 229.451 183.896 228.977 183.375C228.508 182.849 228.271 182.073 228.266 181.047V175.547H229.711V181.008C229.711 182.289 230.232 182.93 231.273 182.93C232.378 182.93 233.112 182.518 233.477 181.695V175.547H234.922V184H233.547L233.516 183.164ZM242.047 181.758C242.047 181.367 241.898 181.065 241.602 180.852C241.31 180.633 240.797 180.445 240.062 180.289C239.333 180.133 238.753 179.945 238.32 179.727C237.893 179.508 237.576 179.247 237.367 178.945C237.164 178.643 237.062 178.284 237.062 177.867C237.062 177.174 237.354 176.589 237.938 176.109C238.526 175.63 239.276 175.391 240.188 175.391C241.146 175.391 241.922 175.638 242.516 176.133C243.115 176.628 243.414 177.26 243.414 178.031H241.961C241.961 177.635 241.792 177.294 241.453 177.008C241.12 176.721 240.698 176.578 240.188 176.578C239.661 176.578 239.25 176.693 238.953 176.922C238.656 177.151 238.508 177.451 238.508 177.82C238.508 178.169 238.646 178.432 238.922 178.609C239.198 178.786 239.695 178.956 240.414 179.117C241.138 179.279 241.724 179.471 242.172 179.695C242.62 179.919 242.951 180.19 243.164 180.508C243.383 180.82 243.492 181.203 243.492 181.656C243.492 182.411 243.19 183.018 242.586 183.477C241.982 183.93 241.198 184.156 240.234 184.156C239.557 184.156 238.958 184.036 238.438 183.797C237.917 183.557 237.508 183.224 237.211 182.797C236.919 182.365 236.773 181.898 236.773 181.398H238.219C238.245 181.883 238.438 182.268 238.797 182.555C239.161 182.836 239.641 182.977 240.234 182.977C240.781 182.977 241.219 182.867 241.547 182.648C241.88 182.424 242.047 182.128 242.047 181.758Z" fill="#3C4E5B"/>
<path d="M24.9902 161V152.469H27.3984C28.1406 152.469 28.7969 152.633 29.3672 152.961C29.9375 153.289 30.377 153.756 30.6855 154.361C30.998 154.967 31.1562 155.662 31.1602 156.447V156.992C31.1602 157.797 31.0039 158.502 30.6914 159.107C30.3828 159.713 29.9395 160.178 29.3613 160.502C28.7871 160.826 28.1172 160.992 27.3516 161H24.9902ZM26.1152 153.395V160.08H27.2988C28.166 160.08 28.8398 159.811 29.3203 159.271C29.8047 158.732 30.0469 157.965 30.0469 156.969V156.471C30.0469 155.502 29.8184 154.75 29.3613 154.215C28.9082 153.676 28.2637 153.402 27.4277 153.395H26.1152ZM35.3262 161.117C34.4668 161.117 33.7676 160.836 33.2285 160.273C32.6895 159.707 32.4199 158.951 32.4199 158.006V157.807C32.4199 157.178 32.5391 156.617 32.7773 156.125C33.0195 155.629 33.3555 155.242 33.7852 154.965C34.2188 154.684 34.6875 154.543 35.1914 154.543C36.0156 154.543 36.6562 154.814 37.1133 155.357C37.5703 155.9 37.7988 156.678 37.7988 157.689V158.141H33.5039C33.5195 158.766 33.7012 159.271 34.0488 159.658C34.4004 160.041 34.8457 160.232 35.3848 160.232C35.7676 160.232 36.0918 160.154 36.3574 159.998C36.623 159.842 36.8555 159.635 37.0547 159.377L37.7168 159.893C37.1855 160.709 36.3887 161.117 35.3262 161.117ZM35.1914 155.434C34.7539 155.434 34.3867 155.594 34.0898 155.914C33.793 156.23 33.6094 156.676 33.5391 157.25H36.7148V157.168C36.6836 156.617 36.5352 156.191 36.2695 155.891C36.0039 155.586 35.6445 155.434 35.1914 155.434ZM42.75 159.318C42.75 159.025 42.6387 158.799 42.416 158.639C42.1973 158.475 41.8125 158.334 41.2617 158.217C40.7148 158.1 40.2793 157.959 39.9551 157.795C39.6348 157.631 39.3965 157.436 39.2402 157.209C39.0879 156.982 39.0117 156.713 39.0117 156.4C39.0117 155.881 39.2305 155.441 39.668 155.082C40.1094 154.723 40.6719 154.543 41.3555 154.543C42.0742 154.543 42.6562 154.729 43.1016 155.1C43.5508 155.471 43.7754 155.945 43.7754 156.523H42.6855C42.6855 156.227 42.5586 155.971 42.3047 155.756C42.0547 155.541 41.7383 155.434 41.3555 155.434C40.9609 155.434 40.6523 155.52 40.4297 155.691C40.207 155.863 40.0957 156.088 40.0957 156.365C40.0957 156.627 40.1992 156.824 40.4062 156.957C40.6133 157.09 40.9863 157.217 41.5254 157.338C42.0684 157.459 42.5078 157.604 42.8438 157.771C43.1797 157.939 43.4277 158.143 43.5879 158.381C43.752 158.615 43.834 158.902 43.834 159.242C43.834 159.809 43.6074 160.264 43.1543 160.607C42.7012 160.947 42.1133 161.117 41.3906 161.117C40.8828 161.117 40.4336 161.027 40.043 160.848C39.6523 160.668 39.3457 160.418 39.123 160.098C38.9043 159.773 38.7949 159.424 38.7949 159.049H39.8789C39.8984 159.412 40.043 159.701 40.3125 159.916C40.5859 160.127 40.9453 160.232 41.3906 160.232C41.8008 160.232 42.1289 160.15 42.375 159.986C42.625 159.818 42.75 159.596 42.75 159.318ZM47.7891 160.232C48.1758 160.232 48.5137 160.115 48.8027 159.881C49.0918 159.646 49.252 159.354 49.2832 159.002H50.3086C50.2891 159.365 50.1641 159.711 49.9336 160.039C49.7031 160.367 49.3945 160.629 49.0078 160.824C48.625 161.02 48.2188 161.117 47.7891 161.117C46.9258 161.117 46.2383 160.83 45.7266 160.256C45.2188 159.678 44.9648 158.889 44.9648 157.889V157.707C44.9648 157.09 45.0781 156.541 45.3047 156.061C45.5312 155.58 45.8555 155.207 46.2773 154.941C46.7031 154.676 47.2051 154.543 47.7832 154.543C48.4941 154.543 49.084 154.756 49.5527 155.182C50.0254 155.607 50.2773 156.16 50.3086 156.84H49.2832C49.252 156.43 49.0957 156.094 48.8145 155.832C48.5371 155.566 48.1934 155.434 47.7832 155.434C47.2324 155.434 46.8047 155.633 46.5 156.031C46.1992 156.426 46.0488 156.998 46.0488 157.748V157.953C46.0488 158.684 46.1992 159.246 46.5 159.641C46.8008 160.035 47.2305 160.232 47.7891 160.232ZM54.5918 155.633C54.4277 155.605 54.25 155.592 54.0586 155.592C53.3477 155.592 52.8652 155.895 52.6113 156.5V161H51.5273V154.66H52.582L52.5996 155.393C52.9551 154.826 53.459 154.543 54.1113 154.543C54.3223 154.543 54.4824 154.57 54.5918 154.625V155.633ZM56.7715 161H55.6875V154.66H56.7715V161ZM55.5996 152.979C55.5996 152.803 55.6523 152.654 55.7578 152.533C55.8672 152.412 56.0273 152.352 56.2383 152.352C56.4492 152.352 56.6094 152.412 56.7188 152.533C56.8281 152.654 56.8828 152.803 56.8828 152.979C56.8828 153.154 56.8281 153.301 56.7188 153.418C56.6094 153.535 56.4492 153.594 56.2383 153.594C56.0273 153.594 55.8672 153.535 55.7578 153.418C55.6523 153.301 55.5996 153.154 55.5996 152.979ZM63.8672 157.9C63.8672 158.865 63.6465 159.643 63.2051 160.232C62.7637 160.822 62.166 161.117 61.4121 161.117C60.6426 161.117 60.0371 160.873 59.5957 160.385V163.438H58.5117V154.66H59.502L59.5547 155.363C59.9961 154.816 60.6094 154.543 61.3945 154.543C62.1562 154.543 62.7578 154.83 63.1992 155.404C63.6445 155.979 63.8672 156.777 63.8672 157.801V157.9ZM62.7832 157.777C62.7832 157.062 62.6309 156.498 62.3262 156.084C62.0215 155.67 61.6035 155.463 61.0723 155.463C60.416 155.463 59.9238 155.754 59.5957 156.336V159.365C59.9199 159.943 60.416 160.232 61.084 160.232C61.6035 160.232 62.0156 160.027 62.3203 159.617C62.6289 159.203 62.7832 158.59 62.7832 157.777ZM66.7207 153.125V154.66H67.9043V155.498H66.7207V159.43C66.7207 159.684 66.7734 159.875 66.8789 160.004C66.9844 160.129 67.1641 160.191 67.418 160.191C67.543 160.191 67.7148 160.168 67.9336 160.121V161C67.6484 161.078 67.3711 161.117 67.1016 161.117C66.6172 161.117 66.252 160.971 66.0059 160.678C65.7598 160.385 65.6367 159.969 65.6367 159.43V155.498H64.4824V154.66H65.6367V153.125H66.7207ZM70.3535 161H69.2695V154.66H70.3535V161ZM69.1816 152.979C69.1816 152.803 69.2344 152.654 69.3398 152.533C69.4492 152.412 69.6094 152.352 69.8203 152.352C70.0312 152.352 70.1914 152.412 70.3008 152.533C70.4102 152.654 70.4648 152.803 70.4648 152.979C70.4648 153.154 70.4102 153.301 70.3008 153.418C70.1914 153.535 70.0312 153.594 69.8203 153.594C69.6094 153.594 69.4492 153.535 69.3398 153.418C69.2344 153.301 69.1816 153.154 69.1816 152.979ZM71.8066 157.771C71.8066 157.15 71.9277 156.592 72.1699 156.096C72.416 155.6 72.7559 155.217 73.1895 154.947C73.627 154.678 74.125 154.543 74.6836 154.543C75.5469 154.543 76.2441 154.842 76.7754 155.439C77.3105 156.037 77.5781 156.832 77.5781 157.824V157.9C77.5781 158.518 77.459 159.072 77.2207 159.564C76.9863 160.053 76.6484 160.434 76.207 160.707C75.7695 160.98 75.2656 161.117 74.6953 161.117C73.8359 161.117 73.1387 160.818 72.6035 160.221C72.0723 159.623 71.8066 158.832 71.8066 157.848V157.771ZM72.8965 157.9C72.8965 158.604 73.0586 159.168 73.3828 159.594C73.7109 160.02 74.1484 160.232 74.6953 160.232C75.2461 160.232 75.6836 160.018 76.0078 159.588C76.332 159.154 76.4941 158.549 76.4941 157.771C76.4941 157.076 76.3281 156.514 75.9961 156.084C75.668 155.65 75.2305 155.434 74.6836 155.434C74.1484 155.434 73.7168 155.646 73.3887 156.072C73.0605 156.498 72.8965 157.107 72.8965 157.9ZM79.9629 154.66L79.998 155.457C80.4824 154.848 81.1152 154.543 81.8965 154.543C83.2363 154.543 83.9121 155.299 83.9238 156.811V161H82.8398V156.805C82.8359 156.348 82.7305 156.01 82.5234 155.791C82.3203 155.572 82.002 155.463 81.5684 155.463C81.2168 155.463 80.9082 155.557 80.6426 155.744C80.377 155.932 80.1699 156.178 80.0215 156.482V161H78.9375V154.66H79.9629Z" fill="#3C4E5B"/>
<path d="M25.5 258.5H350.5V301C350.5 305.142 347.142 308.5 343 308.5H33C28.8579 308.5 25.5 305.142 25.5 301V258.5Z" fill="white" stroke="#C1CED7"/>
<path d="M35.8203 284.547V289H34.3203V277.625H38.5156C39.7604 277.625 40.7344 277.943 41.4375 278.578C42.1458 279.214 42.5 280.055 42.5 281.102C42.5 282.206 42.1536 283.057 41.4609 283.656C40.7734 284.25 39.7865 284.547 38.5 284.547H35.8203ZM35.8203 283.32H38.5156C39.3177 283.32 39.9323 283.133 40.3594 282.758C40.7865 282.378 41 281.831 41 281.117C41 280.44 40.7865 279.898 40.3594 279.492C39.9323 279.086 39.3464 278.875 38.6016 278.859H35.8203V283.32ZM47.5859 289.156C46.4401 289.156 45.5078 288.781 44.7891 288.031C44.0703 287.276 43.7109 286.268 43.7109 285.008V284.742C43.7109 283.904 43.8698 283.156 44.1875 282.5C44.5104 281.839 44.9583 281.323 45.5312 280.953C46.1094 280.578 46.7344 280.391 47.4062 280.391C48.5052 280.391 49.3594 280.753 49.9688 281.477C50.5781 282.201 50.8828 283.237 50.8828 284.586V285.188H45.1562C45.1771 286.021 45.4193 286.695 45.8828 287.211C46.3516 287.721 46.9453 287.977 47.6641 287.977C48.1745 287.977 48.6068 287.872 48.9609 287.664C49.3151 287.456 49.625 287.18 49.8906 286.836L50.7734 287.523C50.0651 288.612 49.0026 289.156 47.5859 289.156ZM47.4062 281.578C46.8229 281.578 46.3333 281.792 45.9375 282.219C45.5417 282.641 45.2969 283.234 45.2031 284H49.4375V283.891C49.3958 283.156 49.1979 282.589 48.8438 282.188C48.4896 281.781 48.0104 281.578 47.4062 281.578ZM53.9297 280.547L53.9766 281.609C54.6224 280.797 55.4661 280.391 56.5078 280.391C58.2943 280.391 59.1953 281.398 59.2109 283.414V289H57.7656V283.406C57.7604 282.797 57.6198 282.346 57.3438 282.055C57.0729 281.763 56.6484 281.617 56.0703 281.617C55.6016 281.617 55.1901 281.742 54.8359 281.992C54.4818 282.242 54.2057 282.57 54.0078 282.977V289H52.5625V280.547H53.9297ZM61.0391 284.703C61.0391 283.406 61.3464 282.365 61.9609 281.578C62.5755 280.786 63.3802 280.391 64.375 280.391C65.3646 280.391 66.1484 280.729 66.7266 281.406V277H68.1719V289H66.8438L66.7734 288.094C66.1953 288.802 65.3906 289.156 64.3594 289.156C63.3802 289.156 62.5807 288.755 61.9609 287.953C61.3464 287.151 61.0391 286.104 61.0391 284.812V284.703ZM62.4844 284.867C62.4844 285.826 62.6823 286.576 63.0781 287.117C63.474 287.659 64.0208 287.93 64.7188 287.93C65.6354 287.93 66.3047 287.518 66.7266 286.695V282.812C66.2943 282.016 65.6302 281.617 64.7344 281.617C64.026 281.617 63.474 281.891 63.0781 282.438C62.6823 282.984 62.4844 283.794 62.4844 284.867ZM71.9922 289H70.5469V277H71.9922V289ZM79.5312 289C79.4479 288.833 79.3802 288.536 79.3281 288.109C78.6562 288.807 77.8542 289.156 76.9219 289.156C76.0885 289.156 75.4036 288.922 74.8672 288.453C74.3359 287.979 74.0703 287.38 74.0703 286.656C74.0703 285.776 74.4036 285.094 75.0703 284.609C75.7422 284.12 76.6849 283.875 77.8984 283.875H79.3047V283.211C79.3047 282.706 79.1536 282.305 78.8516 282.008C78.5495 281.706 78.1042 281.555 77.5156 281.555C77 281.555 76.5677 281.685 76.2188 281.945C75.8698 282.206 75.6953 282.521 75.6953 282.891H74.2422C74.2422 282.469 74.3906 282.062 74.6875 281.672C74.9896 281.276 75.3958 280.964 75.9062 280.734C76.4219 280.505 76.987 280.391 77.6016 280.391C78.5755 280.391 79.3385 280.635 79.8906 281.125C80.4427 281.609 80.7292 282.279 80.75 283.133V287.023C80.75 287.799 80.849 288.417 81.0469 288.875V289H79.5312ZM77.1328 287.898C77.5859 287.898 78.0156 287.781 78.4219 287.547C78.8281 287.312 79.1224 287.008 79.3047 286.633V284.898H78.1719C76.401 284.898 75.5156 285.417 75.5156 286.453C75.5156 286.906 75.6667 287.26 75.9688 287.516C76.2708 287.771 76.6589 287.898 77.1328 287.898ZM85.6562 286.883L87.625 280.547H89.1719L85.7734 290.305C85.2474 291.711 84.4115 292.414 83.2656 292.414L82.9922 292.391L82.4531 292.289V291.117L82.8438 291.148C83.3333 291.148 83.7135 291.049 83.9844 290.852C84.2604 290.654 84.487 290.292 84.6641 289.766L84.9844 288.906L81.9688 280.547H83.5469L85.6562 286.883ZM98.8359 284.398H96.1641V289H94.6562V277.625H98.4219C99.7031 277.625 100.688 277.917 101.375 278.5C102.068 279.083 102.414 279.932 102.414 281.047C102.414 281.755 102.221 282.372 101.836 282.898C101.456 283.424 100.924 283.818 100.242 284.078L102.914 288.906V289H101.305L98.8359 284.398ZM96.1641 283.172H98.4688C99.2135 283.172 99.8047 282.979 100.242 282.594C100.685 282.208 100.906 281.693 100.906 281.047C100.906 280.344 100.695 279.805 100.273 279.43C99.8568 279.055 99.2526 278.865 98.4609 278.859H96.1641V283.172ZM103.914 284.695C103.914 283.867 104.076 283.122 104.398 282.461C104.727 281.799 105.18 281.289 105.758 280.93C106.341 280.57 107.005 280.391 107.75 280.391C108.901 280.391 109.831 280.789 110.539 281.586C111.253 282.383 111.609 283.443 111.609 284.766V284.867C111.609 285.69 111.451 286.43 111.133 287.086C110.82 287.737 110.37 288.245 109.781 288.609C109.198 288.974 108.526 289.156 107.766 289.156C106.62 289.156 105.69 288.758 104.977 287.961C104.268 287.164 103.914 286.109 103.914 284.797V284.695ZM105.367 284.867C105.367 285.805 105.583 286.557 106.016 287.125C106.453 287.693 107.036 287.977 107.766 287.977C108.5 287.977 109.083 287.69 109.516 287.117C109.948 286.539 110.164 285.732 110.164 284.695C110.164 283.768 109.943 283.018 109.5 282.445C109.062 281.867 108.479 281.578 107.75 281.578C107.036 281.578 106.461 281.862 106.023 282.43C105.586 282.997 105.367 283.81 105.367 284.867ZM120.906 287.008L122.531 280.547H123.977L121.516 289H120.344L118.289 282.594L116.289 289H115.117L112.664 280.547H114.102L115.766 286.875L117.734 280.547H118.898L120.906 287.008ZM130.375 286.758C130.375 286.367 130.227 286.065 129.93 285.852C129.638 285.633 129.125 285.445 128.391 285.289C127.661 285.133 127.081 284.945 126.648 284.727C126.221 284.508 125.904 284.247 125.695 283.945C125.492 283.643 125.391 283.284 125.391 282.867C125.391 282.174 125.682 281.589 126.266 281.109C126.854 280.63 127.604 280.391 128.516 280.391C129.474 280.391 130.25 280.638 130.844 281.133C131.443 281.628 131.742 282.26 131.742 283.031H130.289C130.289 282.635 130.12 282.294 129.781 282.008C129.448 281.721 129.026 281.578 128.516 281.578C127.99 281.578 127.578 281.693 127.281 281.922C126.984 282.151 126.836 282.451 126.836 282.82C126.836 283.169 126.974 283.432 127.25 283.609C127.526 283.786 128.023 283.956 128.742 284.117C129.466 284.279 130.052 284.471 130.5 284.695C130.948 284.919 131.279 285.19 131.492 285.508C131.711 285.82 131.82 286.203 131.82 286.656C131.82 287.411 131.518 288.018 130.914 288.477C130.31 288.93 129.526 289.156 128.562 289.156C127.885 289.156 127.286 289.036 126.766 288.797C126.245 288.557 125.836 288.224 125.539 287.797C125.247 287.365 125.102 286.898 125.102 286.398H126.547C126.573 286.883 126.766 287.268 127.125 287.555C127.49 287.836 127.969 287.977 128.562 287.977C129.109 287.977 129.547 287.867 129.875 287.648C130.208 287.424 130.375 287.128 130.375 286.758Z" fill="#3C4E5B"/>
<path d="M288.773 289H287.32V279.367L284.406 280.438V279.125L288.547 277.57H288.773V289ZM300.141 284.148C300.141 285.841 299.852 287.099 299.273 287.922C298.695 288.745 297.792 289.156 296.562 289.156C295.349 289.156 294.451 288.755 293.867 287.953C293.284 287.146 292.982 285.943 292.961 284.344V282.414C292.961 280.742 293.25 279.5 293.828 278.688C294.406 277.875 295.312 277.469 296.547 277.469C297.771 277.469 298.672 277.862 299.25 278.648C299.828 279.43 300.125 280.638 300.141 282.273V284.148ZM298.695 282.172C298.695 280.948 298.523 280.057 298.18 279.5C297.836 278.938 297.292 278.656 296.547 278.656C295.807 278.656 295.268 278.935 294.93 279.492C294.591 280.049 294.417 280.906 294.406 282.062V284.375C294.406 285.604 294.583 286.513 294.938 287.102C295.297 287.685 295.839 287.977 296.562 287.977C297.276 287.977 297.805 287.701 298.148 287.148C298.497 286.596 298.68 285.727 298.695 284.539V282.172ZM310.195 281.844C309.977 281.807 309.74 281.789 309.484 281.789C308.536 281.789 307.893 282.193 307.555 283V289H306.109V280.547H307.516L307.539 281.523C308.013 280.768 308.685 280.391 309.555 280.391C309.836 280.391 310.049 280.427 310.195 280.5V281.844ZM314.883 289.156C313.737 289.156 312.805 288.781 312.086 288.031C311.367 287.276 311.008 286.268 311.008 285.008V284.742C311.008 283.904 311.167 283.156 311.484 282.5C311.807 281.839 312.255 281.323 312.828 280.953C313.406 280.578 314.031 280.391 314.703 280.391C315.802 280.391 316.656 280.753 317.266 281.477C317.875 282.201 318.18 283.237 318.18 284.586V285.188H312.453C312.474 286.021 312.716 286.695 313.18 287.211C313.648 287.721 314.242 287.977 314.961 287.977C315.471 287.977 315.904 287.872 316.258 287.664C316.612 287.456 316.922 287.18 317.188 286.836L318.07 287.523C317.362 288.612 316.299 289.156 314.883 289.156ZM314.703 281.578C314.12 281.578 313.63 281.792 313.234 282.219C312.839 282.641 312.594 283.234 312.5 284H316.734V283.891C316.693 283.156 316.495 282.589 316.141 282.188C315.786 281.781 315.307 281.578 314.703 281.578ZM327 284.867C327 286.154 326.706 287.19 326.117 287.977C325.529 288.763 324.732 289.156 323.727 289.156C322.701 289.156 321.893 288.831 321.305 288.18V292.25H319.859V280.547H321.18L321.25 281.484C321.839 280.755 322.656 280.391 323.703 280.391C324.719 280.391 325.521 280.773 326.109 281.539C326.703 282.305 327 283.37 327 284.734V284.867ZM325.555 284.703C325.555 283.75 325.352 282.997 324.945 282.445C324.539 281.893 323.982 281.617 323.273 281.617C322.398 281.617 321.742 282.005 321.305 282.781V286.82C321.737 287.591 322.398 287.977 323.289 287.977C323.982 287.977 324.531 287.703 324.938 287.156C325.349 286.604 325.555 285.786 325.555 284.703ZM333.766 286.758C333.766 286.367 333.617 286.065 333.32 285.852C333.029 285.633 332.516 285.445 331.781 285.289C331.052 285.133 330.471 284.945 330.039 284.727C329.612 284.508 329.294 284.247 329.086 283.945C328.883 283.643 328.781 283.284 328.781 282.867C328.781 282.174 329.073 281.589 329.656 281.109C330.245 280.63 330.995 280.391 331.906 280.391C332.865 280.391 333.641 280.638 334.234 281.133C334.833 281.628 335.133 282.26 335.133 283.031H333.68C333.68 282.635 333.51 282.294 333.172 282.008C332.839 281.721 332.417 281.578 331.906 281.578C331.38 281.578 330.969 281.693 330.672 281.922C330.375 282.151 330.227 282.451 330.227 282.82C330.227 283.169 330.365 283.432 330.641 283.609C330.917 283.786 331.414 283.956 332.133 284.117C332.857 284.279 333.443 284.471 333.891 284.695C334.339 284.919 334.669 285.19 334.883 285.508C335.102 285.82 335.211 286.203 335.211 286.656C335.211 287.411 334.909 288.018 334.305 288.477C333.701 288.93 332.917 289.156 331.953 289.156C331.276 289.156 330.677 289.036 330.156 288.797C329.635 288.557 329.227 288.224 328.93 287.797C328.638 287.365 328.492 286.898 328.492 286.398H329.938C329.964 286.883 330.156 287.268 330.516 287.555C330.88 287.836 331.359 287.977 331.953 287.977C332.5 287.977 332.938 287.867 333.266 287.648C333.599 287.424 333.766 287.128 333.766 286.758Z" fill="#3C4E5B"/>
<path d="M33 348.5H343C347.142 348.5 350.5 351.858 350.5 356V391C350.5 395.142 347.142 398.5 343 398.5H33C28.8579 398.5 25.5 395.142 25.5 391V356C25.5 351.858 28.8579 348.5 33 348.5Z" fill="white" stroke="#C1CED7"/>
<path d="M35.8203 374.547V379H34.3203V367.625H38.5156C39.7604 367.625 40.7344 367.943 41.4375 368.578C42.1458 369.214 42.5 370.055 42.5 371.102C42.5 372.206 42.1536 373.057 41.4609 373.656C40.7734 374.25 39.7865 374.547 38.5 374.547H35.8203ZM35.8203 373.32H38.5156C39.3177 373.32 39.9323 373.133 40.3594 372.758C40.7865 372.378 41 371.831 41 371.117C41 370.44 40.7865 369.898 40.3594 369.492C39.9323 369.086 39.3464 368.875 38.6016 368.859H35.8203V373.32ZM47.5859 379.156C46.4401 379.156 45.5078 378.781 44.7891 378.031C44.0703 377.276 43.7109 376.268 43.7109 375.008V374.742C43.7109 373.904 43.8698 373.156 44.1875 372.5C44.5104 371.839 44.9583 371.323 45.5312 370.953C46.1094 370.578 46.7344 370.391 47.4062 370.391C48.5052 370.391 49.3594 370.753 49.9688 371.477C50.5781 372.201 50.8828 373.237 50.8828 374.586V375.188H45.1562C45.1771 376.021 45.4193 376.695 45.8828 377.211C46.3516 377.721 46.9453 377.977 47.6641 377.977C48.1745 377.977 48.6068 377.872 48.9609 377.664C49.3151 377.456 49.625 377.18 49.8906 376.836L50.7734 377.523C50.0651 378.612 49.0026 379.156 47.5859 379.156ZM47.4062 371.578C46.8229 371.578 46.3333 371.792 45.9375 372.219C45.5417 372.641 45.2969 373.234 45.2031 374H49.4375V373.891C49.3958 373.156 49.1979 372.589 48.8438 372.188C48.4896 371.781 48.0104 371.578 47.4062 371.578ZM53.9297 370.547L53.9766 371.609C54.6224 370.797 55.4661 370.391 56.5078 370.391C58.2943 370.391 59.1953 371.398 59.2109 373.414V379H57.7656V373.406C57.7604 372.797 57.6198 372.346 57.3438 372.055C57.0729 371.763 56.6484 371.617 56.0703 371.617C55.6016 371.617 55.1901 371.742 54.8359 371.992C54.4818 372.242 54.2057 372.57 54.0078 372.977V379H52.5625V370.547H53.9297ZM61.0391 374.703C61.0391 373.406 61.3464 372.365 61.9609 371.578C62.5755 370.786 63.3802 370.391 64.375 370.391C65.3646 370.391 66.1484 370.729 66.7266 371.406V367H68.1719V379H66.8438L66.7734 378.094C66.1953 378.802 65.3906 379.156 64.3594 379.156C63.3802 379.156 62.5807 378.755 61.9609 377.953C61.3464 377.151 61.0391 376.104 61.0391 374.812V374.703ZM62.4844 374.867C62.4844 375.826 62.6823 376.576 63.0781 377.117C63.474 377.659 64.0208 377.93 64.7188 377.93C65.6354 377.93 66.3047 377.518 66.7266 376.695V372.812C66.2943 372.016 65.6302 371.617 64.7344 371.617C64.026 371.617 63.474 371.891 63.0781 372.438C62.6823 372.984 62.4844 373.794 62.4844 374.867ZM71.9922 379H70.5469V367H71.9922V379ZM79.5312 379C79.4479 378.833 79.3802 378.536 79.3281 378.109C78.6562 378.807 77.8542 379.156 76.9219 379.156C76.0885 379.156 75.4036 378.922 74.8672 378.453C74.3359 377.979 74.0703 377.38 74.0703 376.656C74.0703 375.776 74.4036 375.094 75.0703 374.609C75.7422 374.12 76.6849 373.875 77.8984 373.875H79.3047V373.211C79.3047 372.706 79.1536 372.305 78.8516 372.008C78.5495 371.706 78.1042 371.555 77.5156 371.555C77 371.555 76.5677 371.685 76.2188 371.945C75.8698 372.206 75.6953 372.521 75.6953 372.891H74.2422C74.2422 372.469 74.3906 372.062 74.6875 371.672C74.9896 371.276 75.3958 370.964 75.9062 370.734C76.4219 370.505 76.987 370.391 77.6016 370.391C78.5755 370.391 79.3385 370.635 79.8906 371.125C80.4427 371.609 80.7292 372.279 80.75 373.133V377.023C80.75 377.799 80.849 378.417 81.0469 378.875V379H79.5312ZM77.1328 377.898C77.5859 377.898 78.0156 377.781 78.4219 377.547C78.8281 377.312 79.1224 377.008 79.3047 376.633V374.898H78.1719C76.401 374.898 75.5156 375.417 75.5156 376.453C75.5156 376.906 75.6667 377.26 75.9688 377.516C76.2708 377.771 76.6589 377.898 77.1328 377.898ZM85.6562 376.883L87.625 370.547H89.1719L85.7734 380.305C85.2474 381.711 84.4115 382.414 83.2656 382.414L82.9922 382.391L82.4531 382.289V381.117L82.8438 381.148C83.3333 381.148 83.7135 381.049 83.9844 380.852C84.2604 380.654 84.487 380.292 84.6641 379.766L84.9844 378.906L81.9688 370.547H83.5469L85.6562 376.883ZM98.8359 374.398H96.1641V379H94.6562V367.625H98.4219C99.7031 367.625 100.688 367.917 101.375 368.5C102.068 369.083 102.414 369.932 102.414 371.047C102.414 371.755 102.221 372.372 101.836 372.898C101.456 373.424 100.924 373.818 100.242 374.078L102.914 378.906V379H101.305L98.8359 374.398ZM96.1641 373.172H98.4688C99.2135 373.172 99.8047 372.979 100.242 372.594C100.685 372.208 100.906 371.693 100.906 371.047C100.906 370.344 100.695 369.805 100.273 369.43C99.8568 369.055 99.2526 368.865 98.4609 368.859H96.1641V373.172ZM103.914 374.695C103.914 373.867 104.076 373.122 104.398 372.461C104.727 371.799 105.18 371.289 105.758 370.93C106.341 370.57 107.005 370.391 107.75 370.391C108.901 370.391 109.831 370.789 110.539 371.586C111.253 372.383 111.609 373.443 111.609 374.766V374.867C111.609 375.69 111.451 376.43 111.133 377.086C110.82 377.737 110.37 378.245 109.781 378.609C109.198 378.974 108.526 379.156 107.766 379.156C106.62 379.156 105.69 378.758 104.977 377.961C104.268 377.164 103.914 376.109 103.914 374.797V374.695ZM105.367 374.867C105.367 375.805 105.583 376.557 106.016 377.125C106.453 377.693 107.036 377.977 107.766 377.977C108.5 377.977 109.083 377.69 109.516 377.117C109.948 376.539 110.164 375.732 110.164 374.695C110.164 373.768 109.943 373.018 109.5 372.445C109.062 371.867 108.479 371.578 107.75 371.578C107.036 371.578 106.461 371.862 106.023 372.43C105.586 372.997 105.367 373.81 105.367 374.867ZM120.906 377.008L122.531 370.547H123.977L121.516 379H120.344L118.289 372.594L116.289 379H115.117L112.664 370.547H114.102L115.766 376.875L117.734 370.547H118.898L120.906 377.008ZM130.375 376.758C130.375 376.367 130.227 376.065 129.93 375.852C129.638 375.633 129.125 375.445 128.391 375.289C127.661 375.133 127.081 374.945 126.648 374.727C126.221 374.508 125.904 374.247 125.695 373.945C125.492 373.643 125.391 373.284 125.391 372.867C125.391 372.174 125.682 371.589 126.266 371.109C126.854 370.63 127.604 370.391 128.516 370.391C129.474 370.391 130.25 370.638 130.844 371.133C131.443 371.628 131.742 372.26 131.742 373.031H130.289C130.289 372.635 130.12 372.294 129.781 372.008C129.448 371.721 129.026 371.578 128.516 371.578C127.99 371.578 127.578 371.693 127.281 371.922C126.984 372.151 126.836 372.451 126.836 372.82C126.836 373.169 126.974 373.432 127.25 373.609C127.526 373.786 128.023 373.956 128.742 374.117C129.466 374.279 130.052 374.471 130.5 374.695C130.948 374.919 131.279 375.19 131.492 375.508C131.711 375.82 131.82 376.203 131.82 376.656C131.82 377.411 131.518 378.018 130.914 378.477C130.31 378.93 129.526 379.156 128.562 379.156C127.885 379.156 127.286 379.036 126.766 378.797C126.245 378.557 125.836 378.224 125.539 377.797C125.247 377.365 125.102 376.898 125.102 376.398H126.547C126.573 376.883 126.766 377.268 127.125 377.555C127.49 377.836 127.969 377.977 128.562 377.977C129.109 377.977 129.547 377.867 129.875 377.648C130.208 377.424 130.375 377.128 130.375 376.758Z" fill="#3C4E5B"/>
<path d="M299.906 370.594C299.906 371.161 299.755 371.667 299.453 372.109C299.156 372.552 298.753 372.898 298.242 373.148C298.836 373.404 299.305 373.776 299.648 374.266C299.997 374.755 300.172 375.31 300.172 375.93C300.172 376.914 299.839 377.698 299.172 378.281C298.51 378.865 297.638 379.156 296.555 379.156C295.461 379.156 294.583 378.865 293.922 378.281C293.266 377.693 292.938 376.909 292.938 375.93C292.938 375.315 293.104 374.76 293.438 374.266C293.776 373.771 294.242 373.396 294.836 373.141C294.331 372.891 293.932 372.544 293.641 372.102C293.349 371.659 293.203 371.156 293.203 370.594C293.203 369.635 293.51 368.875 294.125 368.312C294.74 367.75 295.549 367.469 296.555 367.469C297.555 367.469 298.362 367.75 298.977 368.312C299.596 368.875 299.906 369.635 299.906 370.594ZM298.727 375.898C298.727 375.263 298.523 374.745 298.117 374.344C297.716 373.943 297.19 373.742 296.539 373.742C295.888 373.742 295.365 373.94 294.969 374.336C294.578 374.732 294.383 375.253 294.383 375.898C294.383 376.544 294.573 377.052 294.953 377.422C295.339 377.792 295.872 377.977 296.555 377.977C297.232 377.977 297.763 377.792 298.148 377.422C298.534 377.047 298.727 376.539 298.727 375.898ZM296.555 368.656C295.987 368.656 295.526 368.833 295.172 369.188C294.823 369.536 294.648 370.013 294.648 370.617C294.648 371.195 294.82 371.664 295.164 372.023C295.513 372.378 295.977 372.555 296.555 372.555C297.133 372.555 297.594 372.378 297.938 372.023C298.286 371.664 298.461 371.195 298.461 370.617C298.461 370.039 298.281 369.568 297.922 369.203C297.562 368.839 297.107 368.656 296.555 368.656ZM310.195 371.844C309.977 371.807 309.74 371.789 309.484 371.789C308.536 371.789 307.893 372.193 307.555 373V379H306.109V370.547H307.516L307.539 371.523C308.013 370.768 308.685 370.391 309.555 370.391C309.836 370.391 310.049 370.427 310.195 370.5V371.844ZM314.883 379.156C313.737 379.156 312.805 378.781 312.086 378.031C311.367 377.276 311.008 376.268 311.008 375.008V374.742C311.008 373.904 311.167 373.156 311.484 372.5C311.807 371.839 312.255 371.323 312.828 370.953C313.406 370.578 314.031 370.391 314.703 370.391C315.802 370.391 316.656 370.753 317.266 371.477C317.875 372.201 318.18 373.237 318.18 374.586V375.188H312.453C312.474 376.021 312.716 376.695 313.18 377.211C313.648 377.721 314.242 377.977 314.961 377.977C315.471 377.977 315.904 377.872 316.258 377.664C316.612 377.456 316.922 377.18 317.188 376.836L318.07 377.523C317.362 378.612 316.299 379.156 314.883 379.156ZM314.703 371.578C314.12 371.578 313.63 371.792 313.234 372.219C312.839 372.641 312.594 373.234 312.5 374H316.734V373.891C316.693 373.156 316.495 372.589 316.141 372.188C315.786 371.781 315.307 371.578 314.703 371.578ZM327 374.867C327 376.154 326.706 377.19 326.117 377.977C325.529 378.763 324.732 379.156 323.727 379.156C322.701 379.156 321.893 378.831 321.305 378.18V382.25H319.859V370.547H321.18L321.25 371.484C321.839 370.755 322.656 370.391 323.703 370.391C324.719 370.391 325.521 370.773 326.109 371.539C326.703 372.305 327 373.37 327 374.734V374.867ZM325.555 374.703C325.555 373.75 325.352 372.997 324.945 372.445C324.539 371.893 323.982 371.617 323.273 371.617C322.398 371.617 321.742 372.005 321.305 372.781V376.82C321.737 377.591 322.398 377.977 323.289 377.977C323.982 377.977 324.531 377.703 324.938 377.156C325.349 376.604 325.555 375.786 325.555 374.703ZM333.766 376.758C333.766 376.367 333.617 376.065 333.32 375.852C333.029 375.633 332.516 375.445 331.781 375.289C331.052 375.133 330.471 374.945 330.039 374.727C329.612 374.508 329.294 374.247 329.086 373.945C328.883 373.643 328.781 373.284 328.781 372.867C328.781 372.174 329.073 371.589 329.656 371.109C330.245 370.63 330.995 370.391 331.906 370.391C332.865 370.391 333.641 370.638 334.234 371.133C334.833 371.628 335.133 372.26 335.133 373.031H333.68C333.68 372.635 333.51 372.294 333.172 372.008C332.839 371.721 332.417 371.578 331.906 371.578C331.38 371.578 330.969 371.693 330.672 371.922C330.375 372.151 330.227 372.451 330.227 372.82C330.227 373.169 330.365 373.432 330.641 373.609C330.917 373.786 331.414 373.956 332.133 374.117C332.857 374.279 333.443 374.471 333.891 374.695C334.339 374.919 334.669 375.19 334.883 375.508C335.102 375.82 335.211 376.203 335.211 376.656C335.211 377.411 334.909 378.018 334.305 378.477C333.701 378.93 332.917 379.156 331.953 379.156C331.276 379.156 330.677 379.036 330.156 378.797C329.635 378.557 329.227 378.224 328.93 377.797C328.638 377.365 328.492 376.898 328.492 376.398H329.938C329.964 376.883 330.156 377.268 330.516 377.555C330.88 377.836 331.359 377.977 331.953 377.977C332.5 377.977 332.938 377.867 333.266 377.648C333.599 377.424 333.766 377.128 333.766 376.758Z" fill="#3C4E5B"/>
<path d="M25 231C25 226.582 28.5817 223 33 223H343C347.418 223 351 226.582 351 231V258H25V231Z" fill="#3C4E5B"/>
<path d="M40.5938 240.977H35.8203V246H34.3203V234.625H41.3672V235.859H35.8203V239.75H40.5938V240.977ZM42.3828 241.695C42.3828 240.867 42.5443 240.122 42.8672 239.461C43.1953 238.799 43.6484 238.289 44.2266 237.93C44.8099 237.57 45.474 237.391 46.2188 237.391C47.3698 237.391 48.2995 237.789 49.0078 238.586C49.7214 239.383 50.0781 240.443 50.0781 241.766V241.867C50.0781 242.69 49.9193 243.43 49.6016 244.086C49.2891 244.737 48.8385 245.245 48.25 245.609C47.6667 245.974 46.9948 246.156 46.2344 246.156C45.0885 246.156 44.1589 245.758 43.4453 244.961C42.737 244.164 42.3828 243.109 42.3828 241.797V241.695ZM43.8359 241.867C43.8359 242.805 44.0521 243.557 44.4844 244.125C44.9219 244.693 45.5052 244.977 46.2344 244.977C46.9688 244.977 47.5521 244.69 47.9844 244.117C48.4167 243.539 48.6328 242.732 48.6328 241.695C48.6328 240.768 48.4115 240.018 47.9688 239.445C47.5312 238.867 46.9479 238.578 46.2188 238.578C45.5052 238.578 44.9297 238.862 44.4922 239.43C44.0547 239.997 43.8359 240.81 43.8359 241.867ZM55.2812 244.977C55.7969 244.977 56.2474 244.82 56.6328 244.508C57.0182 244.195 57.2318 243.805 57.2734 243.336H58.6406C58.6146 243.82 58.4479 244.281 58.1406 244.719C57.8333 245.156 57.4219 245.505 56.9062 245.766C56.3958 246.026 55.8542 246.156 55.2812 246.156C54.1302 246.156 53.2135 245.773 52.5312 245.008C51.8542 244.237 51.5156 243.185 51.5156 241.852V241.609C51.5156 240.786 51.6667 240.055 51.9688 239.414C52.2708 238.773 52.7031 238.276 53.2656 237.922C53.8333 237.568 54.5026 237.391 55.2734 237.391C56.2214 237.391 57.0078 237.674 57.6328 238.242C58.263 238.81 58.599 239.547 58.6406 240.453H57.2734C57.2318 239.906 57.0234 239.458 56.6484 239.109C56.2786 238.755 55.8203 238.578 55.2734 238.578C54.5391 238.578 53.9688 238.844 53.5625 239.375C53.1615 239.901 52.9609 240.664 52.9609 241.664V241.938C52.9609 242.911 53.1615 243.661 53.5625 244.188C53.9635 244.714 54.5365 244.977 55.2812 244.977ZM65.4844 245.164C64.9219 245.826 64.0964 246.156 63.0078 246.156C62.1068 246.156 61.4193 245.896 60.9453 245.375C60.4766 244.849 60.2396 244.073 60.2344 243.047V237.547H61.6797V243.008C61.6797 244.289 62.2005 244.93 63.2422 244.93C64.3464 244.93 65.0807 244.518 65.4453 243.695V237.547H66.8906V246H65.5156L65.4844 245.164ZM74.0156 243.758C74.0156 243.367 73.8672 243.065 73.5703 242.852C73.2786 242.633 72.7656 242.445 72.0312 242.289C71.3021 242.133 70.7214 241.945 70.2891 241.727C69.862 241.508 69.5443 241.247 69.3359 240.945C69.1328 240.643 69.0312 240.284 69.0312 239.867C69.0312 239.174 69.3229 238.589 69.9062 238.109C70.4948 237.63 71.2448 237.391 72.1562 237.391C73.1146 237.391 73.8906 237.638 74.4844 238.133C75.0833 238.628 75.3828 239.26 75.3828 240.031H73.9297C73.9297 239.635 73.7604 239.294 73.4219 239.008C73.0885 238.721 72.6667 238.578 72.1562 238.578C71.6302 238.578 71.2188 238.693 70.9219 238.922C70.625 239.151 70.4766 239.451 70.4766 239.82C70.4766 240.169 70.6146 240.432 70.8906 240.609C71.1667 240.786 71.6641 240.956 72.3828 241.117C73.1068 241.279 73.6927 241.471 74.1406 241.695C74.5885 241.919 74.9193 242.19 75.1328 242.508C75.3516 242.82 75.4609 243.203 75.4609 243.656C75.4609 244.411 75.1589 245.018 74.5547 245.477C73.9505 245.93 73.1667 246.156 72.2031 246.156C71.526 246.156 70.9271 246.036 70.4062 245.797C69.8854 245.557 69.4766 245.224 69.1797 244.797C68.888 244.365 68.7422 243.898 68.7422 243.398H70.1875C70.2135 243.883 70.4062 244.268 70.7656 244.555C71.1302 244.836 71.6094 244.977 72.2031 244.977C72.75 244.977 73.1875 244.867 73.5156 244.648C73.849 244.424 74.0156 244.128 74.0156 243.758ZM84.8203 246.156C83.6745 246.156 82.7422 245.781 82.0234 245.031C81.3047 244.276 80.9453 243.268 80.9453 242.008V241.742C80.9453 240.904 81.1042 240.156 81.4219 239.5C81.7448 238.839 82.1927 238.323 82.7656 237.953C83.3438 237.578 83.9688 237.391 84.6406 237.391C85.7396 237.391 86.5938 237.753 87.2031 238.477C87.8125 239.201 88.1172 240.237 88.1172 241.586V242.188H82.3906C82.4115 243.021 82.6536 243.695 83.1172 244.211C83.5859 244.721 84.1797 244.977 84.8984 244.977C85.4089 244.977 85.8411 244.872 86.1953 244.664C86.5495 244.456 86.8594 244.18 87.125 243.836L88.0078 244.523C87.2995 245.612 86.237 246.156 84.8203 246.156ZM84.6406 238.578C84.0573 238.578 83.5677 238.792 83.1719 239.219C82.776 239.641 82.5312 240.234 82.4375 241H86.6719V240.891C86.6302 240.156 86.4323 239.589 86.0781 239.188C85.724 238.781 85.2448 238.578 84.6406 238.578ZM92.6328 240.633L94.5078 237.547H96.1953L93.4297 241.727L96.2812 246H94.6094L92.6562 242.836L90.7031 246H89.0234L91.875 241.727L89.1094 237.547H90.7812L92.6328 240.633ZM101.086 246.156C99.9401 246.156 99.0078 245.781 98.2891 245.031C97.5703 244.276 97.2109 243.268 97.2109 242.008V241.742C97.2109 240.904 97.3698 240.156 97.6875 239.5C98.0104 238.839 98.4583 238.323 99.0312 237.953C99.6094 237.578 100.234 237.391 100.906 237.391C102.005 237.391 102.859 237.753 103.469 238.477C104.078 239.201 104.383 240.237 104.383 241.586V242.188H98.6562C98.6771 243.021 98.9193 243.695 99.3828 244.211C99.8516 244.721 100.445 244.977 101.164 244.977C101.674 244.977 102.107 244.872 102.461 244.664C102.815 244.456 103.125 244.18 103.391 243.836L104.273 244.523C103.565 245.612 102.503 246.156 101.086 246.156ZM100.906 238.578C100.323 238.578 99.8333 238.792 99.4375 239.219C99.0417 239.641 98.7969 240.234 98.7031 241H102.938V240.891C102.896 240.156 102.698 239.589 102.344 239.188C101.99 238.781 101.51 238.578 100.906 238.578ZM110.148 238.844C109.93 238.807 109.693 238.789 109.438 238.789C108.49 238.789 107.846 239.193 107.508 240V246H106.062V237.547H107.469L107.492 238.523C107.966 237.768 108.638 237.391 109.508 237.391C109.789 237.391 110.003 237.427 110.148 237.5V238.844ZM114.719 244.977C115.234 244.977 115.685 244.82 116.07 244.508C116.456 244.195 116.669 243.805 116.711 243.336H118.078C118.052 243.82 117.885 244.281 117.578 244.719C117.271 245.156 116.859 245.505 116.344 245.766C115.833 246.026 115.292 246.156 114.719 246.156C113.568 246.156 112.651 245.773 111.969 245.008C111.292 244.237 110.953 243.185 110.953 241.852V241.609C110.953 240.786 111.104 240.055 111.406 239.414C111.708 238.773 112.141 238.276 112.703 237.922C113.271 237.568 113.94 237.391 114.711 237.391C115.659 237.391 116.445 237.674 117.07 238.242C117.701 238.81 118.036 239.547 118.078 240.453H116.711C116.669 239.906 116.461 239.458 116.086 239.109C115.716 238.755 115.258 238.578 114.711 238.578C113.977 238.578 113.406 238.844 113 239.375C112.599 239.901 112.398 240.664 112.398 241.664V241.938C112.398 242.911 112.599 243.661 113 244.188C113.401 244.714 113.974 244.977 114.719 244.977ZM121.273 246H119.828V237.547H121.273V246ZM119.711 235.305C119.711 235.07 119.781 234.872 119.922 234.711C120.068 234.549 120.281 234.469 120.562 234.469C120.844 234.469 121.057 234.549 121.203 234.711C121.349 234.872 121.422 235.07 121.422 235.305C121.422 235.539 121.349 235.734 121.203 235.891C121.057 236.047 120.844 236.125 120.562 236.125C120.281 236.125 120.068 236.047 119.922 235.891C119.781 235.734 119.711 235.539 119.711 235.305ZM128.516 243.758C128.516 243.367 128.367 243.065 128.07 242.852C127.779 242.633 127.266 242.445 126.531 242.289C125.802 242.133 125.221 241.945 124.789 241.727C124.362 241.508 124.044 241.247 123.836 240.945C123.633 240.643 123.531 240.284 123.531 239.867C123.531 239.174 123.823 238.589 124.406 238.109C124.995 237.63 125.745 237.391 126.656 237.391C127.615 237.391 128.391 237.638 128.984 238.133C129.583 238.628 129.883 239.26 129.883 240.031H128.43C128.43 239.635 128.26 239.294 127.922 239.008C127.589 238.721 127.167 238.578 126.656 238.578C126.13 238.578 125.719 238.693 125.422 238.922C125.125 239.151 124.977 239.451 124.977 239.82C124.977 240.169 125.115 240.432 125.391 240.609C125.667 240.786 126.164 240.956 126.883 241.117C127.607 241.279 128.193 241.471 128.641 241.695C129.089 241.919 129.419 242.19 129.633 242.508C129.852 242.82 129.961 243.203 129.961 243.656C129.961 244.411 129.659 245.018 129.055 245.477C128.451 245.93 127.667 246.156 126.703 246.156C126.026 246.156 125.427 246.036 124.906 245.797C124.385 245.557 123.977 245.224 123.68 244.797C123.388 244.365 123.242 243.898 123.242 243.398H124.688C124.714 243.883 124.906 244.268 125.266 244.555C125.63 244.836 126.109 244.977 126.703 244.977C127.25 244.977 127.688 244.867 128.016 244.648C128.349 244.424 128.516 244.128 128.516 243.758ZM135.352 246.156C134.206 246.156 133.273 245.781 132.555 245.031C131.836 244.276 131.477 243.268 131.477 242.008V241.742C131.477 240.904 131.635 240.156 131.953 239.5C132.276 238.839 132.724 238.323 133.297 237.953C133.875 237.578 134.5 237.391 135.172 237.391C136.271 237.391 137.125 237.753 137.734 238.477C138.344 239.201 138.648 240.237 138.648 241.586V242.188H132.922C132.943 243.021 133.185 243.695 133.648 244.211C134.117 244.721 134.711 244.977 135.43 244.977C135.94 244.977 136.372 244.872 136.727 244.664C137.081 244.456 137.391 244.18 137.656 243.836L138.539 244.523C137.831 245.612 136.768 246.156 135.352 246.156ZM135.172 238.578C134.589 238.578 134.099 238.792 133.703 239.219C133.307 239.641 133.062 240.234 132.969 241H137.203V240.891C137.161 240.156 136.964 239.589 136.609 239.188C136.255 238.781 135.776 238.578 135.172 238.578Z" fill="white"/>
<path d="M294.875 239.609H295.961C296.643 239.599 297.18 239.419 297.57 239.07C297.961 238.721 298.156 238.25 298.156 237.656C298.156 236.323 297.492 235.656 296.164 235.656C295.539 235.656 295.039 235.836 294.664 236.195C294.294 236.549 294.109 237.021 294.109 237.609H292.664C292.664 236.708 292.992 235.961 293.648 235.367C294.31 234.768 295.148 234.469 296.164 234.469C297.237 234.469 298.078 234.753 298.688 235.32C299.297 235.888 299.602 236.677 299.602 237.688C299.602 238.182 299.44 238.661 299.117 239.125C298.799 239.589 298.365 239.935 297.812 240.164C298.438 240.362 298.919 240.69 299.258 241.148C299.602 241.607 299.773 242.167 299.773 242.828C299.773 243.849 299.44 244.659 298.773 245.258C298.107 245.857 297.24 246.156 296.172 246.156C295.104 246.156 294.234 245.867 293.562 245.289C292.896 244.711 292.562 243.948 292.562 243H294.016C294.016 243.599 294.211 244.078 294.602 244.438C294.992 244.797 295.516 244.977 296.172 244.977C296.87 244.977 297.404 244.794 297.773 244.43C298.143 244.065 298.328 243.542 298.328 242.859C298.328 242.198 298.125 241.69 297.719 241.336C297.312 240.982 296.727 240.799 295.961 240.789H294.875V239.609ZM310.797 243.758C310.797 243.367 310.648 243.065 310.352 242.852C310.06 242.633 309.547 242.445 308.812 242.289C308.083 242.133 307.503 241.945 307.07 241.727C306.643 241.508 306.326 241.247 306.117 240.945C305.914 240.643 305.812 240.284 305.812 239.867C305.812 239.174 306.104 238.589 306.688 238.109C307.276 237.63 308.026 237.391 308.938 237.391C309.896 237.391 310.672 237.638 311.266 238.133C311.865 238.628 312.164 239.26 312.164 240.031H310.711C310.711 239.635 310.542 239.294 310.203 239.008C309.87 238.721 309.448 238.578 308.938 238.578C308.411 238.578 308 238.693 307.703 238.922C307.406 239.151 307.258 239.451 307.258 239.82C307.258 240.169 307.396 240.432 307.672 240.609C307.948 240.786 308.445 240.956 309.164 241.117C309.888 241.279 310.474 241.471 310.922 241.695C311.37 241.919 311.701 242.19 311.914 242.508C312.133 242.82 312.242 243.203 312.242 243.656C312.242 244.411 311.94 245.018 311.336 245.477C310.732 245.93 309.948 246.156 308.984 246.156C308.307 246.156 307.708 246.036 307.188 245.797C306.667 245.557 306.258 245.224 305.961 244.797C305.669 244.365 305.523 243.898 305.523 243.398H306.969C306.995 243.883 307.188 244.268 307.547 244.555C307.911 244.836 308.391 244.977 308.984 244.977C309.531 244.977 309.969 244.867 310.297 244.648C310.63 244.424 310.797 244.128 310.797 243.758ZM317.633 246.156C316.487 246.156 315.555 245.781 314.836 245.031C314.117 244.276 313.758 243.268 313.758 242.008V241.742C313.758 240.904 313.917 240.156 314.234 239.5C314.557 238.839 315.005 238.323 315.578 237.953C316.156 237.578 316.781 237.391 317.453 237.391C318.552 237.391 319.406 237.753 320.016 238.477C320.625 239.201 320.93 240.237 320.93 241.586V242.188H315.203C315.224 243.021 315.466 243.695 315.93 244.211C316.398 244.721 316.992 244.977 317.711 244.977C318.221 244.977 318.654 244.872 319.008 244.664C319.362 244.456 319.672 244.18 319.938 243.836L320.82 244.523C320.112 245.612 319.049 246.156 317.633 246.156ZM317.453 238.578C316.87 238.578 316.38 238.792 315.984 239.219C315.589 239.641 315.344 240.234 315.25 241H319.484V240.891C319.443 240.156 319.245 239.589 318.891 239.188C318.536 238.781 318.057 238.578 317.453 238.578ZM324.57 235.5V237.547H326.148V238.664H324.57V243.906C324.57 244.245 324.641 244.5 324.781 244.672C324.922 244.839 325.161 244.922 325.5 244.922C325.667 244.922 325.896 244.891 326.188 244.828V246C325.807 246.104 325.438 246.156 325.078 246.156C324.432 246.156 323.945 245.961 323.617 245.57C323.289 245.18 323.125 244.625 323.125 243.906V238.664H321.586V237.547H323.125V235.5H324.57ZM332.766 243.758C332.766 243.367 332.617 243.065 332.32 242.852C332.029 242.633 331.516 242.445 330.781 242.289C330.052 242.133 329.471 241.945 329.039 241.727C328.612 241.508 328.294 241.247 328.086 240.945C327.883 240.643 327.781 240.284 327.781 239.867C327.781 239.174 328.073 238.589 328.656 238.109C329.245 237.63 329.995 237.391 330.906 237.391C331.865 237.391 332.641 237.638 333.234 238.133C333.833 238.628 334.133 239.26 334.133 240.031H332.68C332.68 239.635 332.51 239.294 332.172 239.008C331.839 238.721 331.417 238.578 330.906 238.578C330.38 238.578 329.969 238.693 329.672 238.922C329.375 239.151 329.227 239.451 329.227 239.82C329.227 240.169 329.365 240.432 329.641 240.609C329.917 240.786 330.414 240.956 331.133 241.117C331.857 241.279 332.443 241.471 332.891 241.695C333.339 241.919 333.669 242.19 333.883 242.508C334.102 242.82 334.211 243.203 334.211 243.656C334.211 244.411 333.909 245.018 333.305 245.477C332.701 245.93 331.917 246.156 330.953 246.156C330.276 246.156 329.677 246.036 329.156 245.797C328.635 245.557 328.227 245.224 327.93 244.797C327.638 244.365 327.492 243.898 327.492 243.398H328.938C328.964 243.883 329.156 244.268 329.516 244.555C329.88 244.836 330.359 244.977 330.953 244.977C331.5 244.977 331.938 244.867 332.266 244.648C332.599 244.424 332.766 244.128 332.766 243.758Z" fill="#C1CED7"/>
<path d="M149.672 332H142.219V330.961L146.156 326.586C146.74 325.924 147.141 325.388 147.359 324.977C147.583 324.56 147.695 324.13 147.695 323.688C147.695 323.094 147.516 322.607 147.156 322.227C146.797 321.846 146.318 321.656 145.719 321.656C145 321.656 144.44 321.862 144.039 322.273C143.643 322.68 143.445 323.247 143.445 323.977H142C142 322.93 142.336 322.083 143.008 321.438C143.685 320.792 144.589 320.469 145.719 320.469C146.776 320.469 147.612 320.747 148.227 321.305C148.841 321.857 149.148 322.594 149.148 323.516C149.148 324.635 148.435 325.969 147.008 327.516L143.961 330.82H149.672V332ZM156.68 323.547L156.719 324.484C157.339 323.755 158.174 323.391 159.227 323.391C160.409 323.391 161.214 323.844 161.641 324.75C161.922 324.344 162.286 324.016 162.734 323.766C163.188 323.516 163.721 323.391 164.336 323.391C166.19 323.391 167.133 324.372 167.164 326.336V332H165.719V326.422C165.719 325.818 165.581 325.367 165.305 325.07C165.029 324.768 164.565 324.617 163.914 324.617C163.378 324.617 162.932 324.779 162.578 325.102C162.224 325.419 162.018 325.849 161.961 326.391V332H160.508V326.461C160.508 325.232 159.906 324.617 158.703 324.617C157.755 324.617 157.107 325.021 156.758 325.828V332H155.312V323.547H156.68ZM170.922 332H169.477V323.547H170.922V332ZM169.359 321.305C169.359 321.07 169.43 320.872 169.57 320.711C169.716 320.549 169.93 320.469 170.211 320.469C170.492 320.469 170.706 320.549 170.852 320.711C170.997 320.872 171.07 321.07 171.07 321.305C171.07 321.539 170.997 321.734 170.852 321.891C170.706 322.047 170.492 322.125 170.211 322.125C169.93 322.125 169.716 322.047 169.57 321.891C169.43 321.734 169.359 321.539 169.359 321.305ZM174.609 323.547L174.656 324.609C175.302 323.797 176.146 323.391 177.188 323.391C178.974 323.391 179.875 324.398 179.891 326.414V332H178.445V326.406C178.44 325.797 178.299 325.346 178.023 325.055C177.753 324.763 177.328 324.617 176.75 324.617C176.281 324.617 175.87 324.742 175.516 324.992C175.161 325.242 174.885 325.57 174.688 325.977V332H173.242V323.547H174.609ZM187.289 331.164C186.727 331.826 185.901 332.156 184.812 332.156C183.911 332.156 183.224 331.896 182.75 331.375C182.281 330.849 182.044 330.073 182.039 329.047V323.547H183.484V329.008C183.484 330.289 184.005 330.93 185.047 330.93C186.151 330.93 186.885 330.518 187.25 329.695V323.547H188.695V332H187.32L187.289 331.164ZM192.859 321.5V323.547H194.438V324.664H192.859V329.906C192.859 330.245 192.93 330.5 193.07 330.672C193.211 330.839 193.451 330.922 193.789 330.922C193.956 330.922 194.185 330.891 194.477 330.828V332C194.096 332.104 193.727 332.156 193.367 332.156C192.721 332.156 192.234 331.961 191.906 331.57C191.578 331.18 191.414 330.625 191.414 329.906V324.664H189.875V323.547H191.414V321.5H192.859ZM199.641 332.156C198.495 332.156 197.562 331.781 196.844 331.031C196.125 330.276 195.766 329.268 195.766 328.008V327.742C195.766 326.904 195.924 326.156 196.242 325.5C196.565 324.839 197.013 324.323 197.586 323.953C198.164 323.578 198.789 323.391 199.461 323.391C200.56 323.391 201.414 323.753 202.023 324.477C202.633 325.201 202.938 326.237 202.938 327.586V328.188H197.211C197.232 329.021 197.474 329.695 197.938 330.211C198.406 330.721 199 330.977 199.719 330.977C200.229 330.977 200.661 330.872 201.016 330.664C201.37 330.456 201.68 330.18 201.945 329.836L202.828 330.523C202.12 331.612 201.057 332.156 199.641 332.156ZM199.461 324.578C198.878 324.578 198.388 324.792 197.992 325.219C197.596 325.641 197.352 326.234 197.258 327H201.492V326.891C201.451 326.156 201.253 325.589 200.898 325.188C200.544 324.781 200.065 324.578 199.461 324.578ZM212.672 324.844C212.453 324.807 212.216 324.789 211.961 324.789C211.013 324.789 210.37 325.193 210.031 326V332H208.586V323.547H209.992L210.016 324.523C210.49 323.768 211.161 323.391 212.031 323.391C212.312 323.391 212.526 323.427 212.672 323.5V324.844ZM217.359 332.156C216.214 332.156 215.281 331.781 214.562 331.031C213.844 330.276 213.484 329.268 213.484 328.008V327.742C213.484 326.904 213.643 326.156 213.961 325.5C214.284 324.839 214.732 324.323 215.305 323.953C215.883 323.578 216.508 323.391 217.18 323.391C218.279 323.391 219.133 323.753 219.742 324.477C220.352 325.201 220.656 326.237 220.656 327.586V328.188H214.93C214.951 329.021 215.193 329.695 215.656 330.211C216.125 330.721 216.719 330.977 217.438 330.977C217.948 330.977 218.38 330.872 218.734 330.664C219.089 330.456 219.398 330.18 219.664 329.836L220.547 330.523C219.839 331.612 218.776 332.156 217.359 332.156ZM217.18 324.578C216.596 324.578 216.107 324.792 215.711 325.219C215.315 325.641 215.07 326.234 214.977 327H219.211V326.891C219.169 326.156 218.971 325.589 218.617 325.188C218.263 324.781 217.784 324.578 217.18 324.578ZM227.258 329.758C227.258 329.367 227.109 329.065 226.812 328.852C226.521 328.633 226.008 328.445 225.273 328.289C224.544 328.133 223.964 327.945 223.531 327.727C223.104 327.508 222.786 327.247 222.578 326.945C222.375 326.643 222.273 326.284 222.273 325.867C222.273 325.174 222.565 324.589 223.148 324.109C223.737 323.63 224.487 323.391 225.398 323.391C226.357 323.391 227.133 323.638 227.727 324.133C228.326 324.628 228.625 325.26 228.625 326.031H227.172C227.172 325.635 227.003 325.294 226.664 325.008C226.331 324.721 225.909 324.578 225.398 324.578C224.872 324.578 224.461 324.693 224.164 324.922C223.867 325.151 223.719 325.451 223.719 325.82C223.719 326.169 223.857 326.432 224.133 326.609C224.409 326.786 224.906 326.956 225.625 327.117C226.349 327.279 226.935 327.471 227.383 327.695C227.831 327.919 228.161 328.19 228.375 328.508C228.594 328.82 228.703 329.203 228.703 329.656C228.703 330.411 228.401 331.018 227.797 331.477C227.193 331.93 226.409 332.156 225.445 332.156C224.768 332.156 224.169 332.036 223.648 331.797C223.128 331.557 222.719 331.224 222.422 330.797C222.13 330.365 221.984 329.898 221.984 329.398H223.43C223.456 329.883 223.648 330.268 224.008 330.555C224.372 330.836 224.852 330.977 225.445 330.977C225.992 330.977 226.43 330.867 226.758 330.648C227.091 330.424 227.258 330.128 227.258 329.758ZM232.547 321.5V323.547H234.125V324.664H232.547V329.906C232.547 330.245 232.617 330.5 232.758 330.672C232.898 330.839 233.138 330.922 233.477 330.922C233.643 330.922 233.872 330.891 234.164 330.828V332C233.784 332.104 233.414 332.156 233.055 332.156C232.409 332.156 231.922 331.961 231.594 331.57C231.266 331.18 231.102 330.625 231.102 329.906V324.664H229.562V323.547H231.102V321.5H232.547Z" fill="#C1CED7"/>
<line x1="25" y1="327.5" x2="133" y2="327.5" stroke="#C1CED7"/>
<line x1="243" y1="327.5" x2="351" y2="327.5" stroke="#C1CED7"/>
</g>
<defs>
<filter id="filter0_d_302_63" x="255" y="99" width="100" height="43" filterUnits="userSpaceOnUse" color-interpolation-filters="sRGB">
<feFlood flood-opacity="0" result="BackgroundImageFix"/>
<feColorMatrix in="SourceAlpha" type="matrix" values="0 0 0 0 0 0 0 0 0 0 0 0 0 0 0 0 0 0 127 0" result="hardAlpha"/>
<feOffset dy="4"/>
<feGaussianBlur stdDeviation="2"/>
<feComposite in2="hardAlpha" operator="out"/>
<feColorMatrix type="matrix" values="0 0 0 0 0 0 0 0 0 0 0 0 0 0 0 0 0 0 0.25 0"/>
<feBlend mode="normal" in2="BackgroundImageFix" result="effect1_dropShadow_302_63"/>
<feBlend mode="normal" in="SourceGraphic" in2="effect1_dropShadow_302_63" result="shape"/>
</filter>
<clipPath id="clip0_302_63">
<path d="M0 16C0 7.16345 7.16344 0 16 0H359C367.837 0 375 7.16344 375 16V400H0V16Z" fill="white"/>
</clipPath>
</defs>
</svg>
