<svg width="184" height="61" viewBox="0 0 184 61" fill="none" xmlns="http://www.w3.org/2000/svg">
<g filter="url(#filter0_d_14_15)">
<path d="M98.0469 30.3359C98.0469 31.9297 97.8359 33.4688 97.4141 34.9531C97.0078 36.4219 96.4297 37.8047 95.6797 39.1016C94.9297 40.3828 94.0234 41.5547 92.9609 42.6172C91.8984 43.6797 90.7266 44.5938 89.4453 45.3594C88.1641 46.1094 86.7812 46.6875 85.2969 47.0938C83.8125 47.5156 82.2734 47.7266 80.6797 47.7266C79.0859 47.7266 77.5469 47.5156 76.0625 47.0938C74.5938 46.6875 73.2109 46.1094 71.9141 45.3594C70.6328 44.5938 69.4609 43.6797 68.3984 42.6172C67.3359 41.5547 66.4219 40.3828 65.6562 39.1016C64.9062 37.8047 64.3203 36.4219 63.8984 34.9531C63.4922 33.4688 63.2891 31.9297 63.2891 30.3359C63.2891 28.7422 63.4922 27.2031 63.8984 25.7188C64.3203 24.2344 64.9062 22.8516 65.6562 21.5703C66.4219 20.2891 67.3359 19.1172 68.3984 18.0547C69.4609 16.9922 70.6328 16.0859 71.9141 15.3359C73.2109 14.5859 74.5938 14.0078 76.0625 13.6016C77.5469 13.1797 79.0859 12.9688 80.6797 12.9688C82.2734 12.9688 83.8125 13.1797 85.2969 13.6016C86.7812 14.0078 88.1641 14.5859 89.4453 15.3359C90.7266 16.0859 91.8984 16.9922 92.9609 18.0547C94.0234 19.1172 94.9297 20.2891 95.6797 21.5703C96.4297 22.8516 97.0078 24.2344 97.4141 25.7188C97.8359 27.2031 98.0469 28.7422 98.0469 30.3359ZM91.3672 30.3359C91.3672 28.8672 91.0859 27.4844 90.5234 26.1875C89.9609 24.875 89.1953 23.7422 88.2266 22.7891C87.2734 21.8203 86.1406 21.0547 84.8281 20.4922C83.5312 19.9297 82.1484 19.6484 80.6797 19.6484C79.1953 19.6484 77.8047 19.9297 76.5078 20.4922C75.2109 21.0547 74.0781 21.8203 73.1094 22.7891C72.1406 23.7422 71.375 24.875 70.8125 26.1875C70.25 27.4844 69.9688 28.8672 69.9688 30.3359C69.9688 31.8047 70.25 33.1875 70.8125 34.4844C71.375 35.7656 72.1406 36.8906 73.1094 37.8594C74.0781 38.8281 75.2109 39.5938 76.5078 40.1562C77.8047 40.7188 79.1953 41 80.6797 41C82.1484 41 83.5312 40.7188 84.8281 40.1562C86.1406 39.5938 87.2734 38.8281 88.2266 37.8594C89.1953 36.8906 89.9609 35.7656 90.5234 34.4844C91.0859 33.1875 91.3672 31.8047 91.3672 30.3359ZM108.195 47H101.797V21.8984H103.344L105.453 24.875C106.484 23.9375 107.656 23.2188 108.969 22.7188C110.281 22.2031 111.641 21.9453 113.047 21.9453H118.695V28.3203H113.047C112.375 28.3203 111.742 28.4453 111.148 28.6953C110.555 28.9453 110.039 29.2891 109.602 29.7266C109.164 30.1641 108.82 30.6797 108.57 31.2734C108.32 31.8672 108.195 32.5 108.195 33.1719V47ZM146.797 34.2266C146.797 36.1953 146.461 37.9922 145.789 39.6172C145.117 41.2422 144.203 42.6406 143.047 43.8125C141.891 44.9688 140.531 45.8672 138.969 46.5078C137.422 47.1484 135.758 47.4688 133.977 47.4688C132.211 47.4688 130.547 47.1406 128.984 46.4844C127.438 45.8281 126.078 44.9141 124.906 43.7422C123.75 42.5703 122.836 41.1797 122.164 39.5703C121.492 37.9453 121.156 36.1641 121.156 34.2266V11.9141H127.578V23.6328C127.922 23.1953 128.336 22.8047 128.82 22.4609C129.32 22.1172 129.852 21.8359 130.414 21.6172C130.992 21.3984 131.586 21.2344 132.195 21.125C132.805 21 133.398 20.9375 133.977 20.9375C135.758 20.9375 137.422 21.2734 138.969 21.9453C140.531 22.6016 141.891 23.5234 143.047 24.7109C144.203 25.8984 145.117 27.3047 145.789 28.9297C146.461 30.5391 146.797 32.3047 146.797 34.2266ZM140.352 34.2266C140.352 33.2578 140.18 32.3594 139.836 31.5312C139.508 30.6875 139.055 29.9609 138.477 29.3516C137.898 28.7422 137.219 28.2656 136.438 27.9219C135.672 27.5781 134.852 27.4062 133.977 27.4062C133.102 27.4062 132.273 27.6016 131.492 27.9922C130.727 28.3672 130.055 28.875 129.477 29.5156C128.898 30.1406 128.445 30.8672 128.117 31.6953C127.789 32.5078 127.625 33.3516 127.625 34.2266C127.625 35.1953 127.789 36.0938 128.117 36.9219C128.445 37.75 128.898 38.4688 129.477 39.0781C130.055 39.6875 130.727 40.1719 131.492 40.5312C132.273 40.875 133.102 41.0469 133.977 41.0469C134.852 41.0469 135.672 40.875 136.438 40.5312C137.219 40.1719 137.898 39.6875 138.477 39.0781C139.055 38.4688 139.508 37.75 139.836 36.9219C140.18 36.0938 140.352 35.1953 140.352 34.2266ZM157.906 15.0781C157.906 15.6719 157.789 16.2266 157.555 16.7422C157.336 17.2578 157.031 17.7109 156.641 18.1016C156.25 18.4766 155.789 18.7812 155.258 19.0156C154.742 19.2344 154.188 19.3438 153.594 19.3438C153 19.3438 152.438 19.2344 151.906 19.0156C151.391 18.7812 150.938 18.4766 150.547 18.1016C150.172 17.7109 149.867 17.2578 149.633 16.7422C149.414 16.2266 149.305 15.6719 149.305 15.0781C149.305 14.5 149.414 13.9531 149.633 13.4375C149.867 12.9062 150.172 12.4531 150.547 12.0781C150.938 11.6875 151.391 11.3828 151.906 11.1641C152.438 10.9297 153 10.8125 153.594 10.8125C154.188 10.8125 154.742 10.9297 155.258 11.1641C155.789 11.3828 156.25 11.6875 156.641 12.0781C157.031 12.4531 157.336 12.9062 157.555 13.4375C157.789 13.9531 157.906 14.5 157.906 15.0781ZM156.805 47H150.359V21.8984H156.805V47ZM174.289 47C172.742 47 171.289 46.7109 169.93 46.1328C168.57 45.5391 167.375 44.7344 166.344 43.7188C165.328 42.6875 164.523 41.4922 163.93 40.1328C163.352 38.7734 163.062 37.3203 163.062 35.7734V28.3203H159.945V21.9453H163.062V11.9141H169.438V21.9453H179.141V28.3203H169.438V35.7734C169.438 36.4453 169.562 37.0781 169.812 37.6719C170.062 38.25 170.406 38.7578 170.844 39.1953C171.281 39.6328 171.797 39.9844 172.391 40.25C172.984 40.5 173.617 40.625 174.289 40.625H179.141V47H174.289Z" fill="black"/>
<path d="M97.4141 34.9531L96.4521 34.6797L96.4503 34.6865L97.4141 34.9531ZM95.6797 39.1016L96.5427 39.6067L96.5454 39.6022L95.6797 39.1016ZM89.4453 45.3594L89.9505 46.2224L89.9583 46.2178L89.4453 45.3594ZM85.2969 47.0938L85.0329 46.1292L85.0235 46.1318L85.2969 47.0938ZM76.0625 47.0938L76.3359 46.1318L76.3291 46.1299L76.0625 47.0938ZM71.9141 45.3594L71.4011 46.2178L71.4072 46.2215L71.4134 46.225L71.9141 45.3594ZM65.6562 39.1016L64.7906 39.6022L64.7942 39.6084L64.7978 39.6145L65.6562 39.1016ZM63.8984 34.9531L62.9338 35.2171L62.9373 35.2292L63.8984 34.9531ZM63.8984 25.7188L62.9365 25.4454L62.9339 25.4548L63.8984 25.7188ZM65.6562 21.5703L64.7978 21.0573L64.7932 21.0651L65.6562 21.5703ZM71.9141 15.3359L71.4134 14.4703L71.4089 14.4729L71.9141 15.3359ZM76.0625 13.6016L76.3291 14.5654L76.3359 14.5635L76.0625 13.6016ZM85.2969 13.6016L85.0235 14.5635L85.0329 14.5661L85.2969 13.6016ZM97.4141 25.7188L96.4495 25.9827L96.4522 25.9921L97.4141 25.7188ZM90.5234 26.1875L89.6043 26.5814L89.606 26.5854L90.5234 26.1875ZM88.2266 22.7891L87.5137 23.4904L87.5194 23.4962L87.5252 23.5019L88.2266 22.7891ZM84.8281 20.4922L84.4302 21.4096L84.4342 21.4113L84.8281 20.4922ZM73.1094 22.7891L73.8107 23.5019L73.8165 23.4962L73.1094 22.7891ZM70.8125 26.1875L71.7299 26.5854L71.7316 26.5814L70.8125 26.1875ZM70.8125 34.4844L69.8951 34.8823L69.8969 34.8864L70.8125 34.4844ZM84.8281 40.1562L84.4342 39.2371L84.4302 39.2388L84.8281 40.1562ZM88.2266 37.8594L87.5194 37.1522L87.5137 37.158L88.2266 37.8594ZM90.5234 34.4844L91.4391 34.8864L91.4409 34.8823L90.5234 34.4844ZM97.0469 30.3359C97.0469 31.8403 96.8479 33.2872 96.4522 34.6797L98.376 35.2265C98.8239 33.6503 99.0469 32.0191 99.0469 30.3359H97.0469ZM96.4503 34.6865C96.0663 36.0748 95.5208 37.3789 94.814 38.6009L96.5454 39.6022C97.3386 38.2305 97.9494 36.7689 98.3779 35.2197L96.4503 34.6865ZM94.8167 38.5964C94.1103 39.803 93.2567 40.9072 92.2538 41.9101L93.668 43.3243C94.7902 42.2022 95.749 40.9626 96.5427 39.6067L94.8167 38.5964ZM92.2538 41.9101C91.2492 42.9147 90.1424 43.7779 88.9324 44.501L89.9583 46.2178C91.3107 45.4096 92.5477 44.4446 93.668 43.3243L92.2538 41.9101ZM88.9401 44.4964C87.7372 45.2005 86.4359 45.7452 85.0329 46.1292L85.5609 48.0583C87.1266 47.6298 88.5909 47.0182 89.9505 46.2224L88.9401 44.4964ZM85.0235 46.1318C83.6309 46.5276 82.184 46.7266 80.6797 46.7266V48.7266C82.3628 48.7266 83.9941 48.5036 85.5703 48.0557L85.0235 46.1318ZM80.6797 46.7266C79.1753 46.7266 77.7284 46.5276 76.3359 46.1318L75.7891 48.0557C77.3653 48.5036 78.9965 48.7266 80.6797 48.7266V46.7266ZM76.3291 46.1299C74.9408 45.7459 73.6368 45.2005 72.4147 44.4937L71.4134 46.225C72.7851 47.0183 74.2467 47.6291 75.7959 48.0576L76.3291 46.1299ZM72.427 44.501C71.2169 43.7779 70.1102 42.9147 69.1055 41.9101L67.6913 43.3243C68.8117 44.4446 70.0487 45.4096 71.4011 46.2178L72.427 44.501ZM69.1055 41.9101C68.1009 40.9054 67.2378 39.7987 66.5147 38.5886L64.7978 39.6145C65.606 40.9669 66.571 42.204 67.6913 43.3243L69.1055 41.9101ZM66.5219 38.6009C65.8136 37.3761 65.2594 36.0689 64.8596 34.6771L62.9373 35.2292C63.3813 36.7748 63.9989 38.2332 64.7906 39.6022L66.5219 38.6009ZM64.863 34.6891C64.4811 33.2938 64.2891 31.8437 64.2891 30.3359H62.2891C62.2891 32.0157 62.5033 33.6437 62.9339 35.2171L64.863 34.6891ZM64.2891 30.3359C64.2891 28.8282 64.4811 27.3781 64.863 25.9827L62.9339 25.4548C62.5033 27.0282 62.2891 28.6562 62.2891 30.3359H64.2891ZM64.8603 25.9921C65.2601 24.5857 65.8135 23.2811 66.5193 22.0755L64.7932 21.0651C63.999 22.422 63.3806 23.8831 62.9365 25.4454L64.8603 25.9921ZM66.5147 22.0833C67.2378 20.8732 68.1009 19.7665 69.1055 18.7618L67.6913 17.3476C66.571 18.4679 65.606 19.7049 64.7978 21.0574L66.5147 22.0833ZM69.1055 18.7618C70.1084 17.7589 71.2126 16.9053 72.4192 16.199L71.4089 14.4729C70.053 15.2666 68.8135 16.2254 67.6913 17.3476L69.1055 18.7618ZM72.4147 16.2016C73.6368 15.4949 74.9408 14.9494 76.3291 14.5654L75.7959 12.6378C74.2467 13.0663 72.7851 13.677 71.4134 14.4703L72.4147 16.2016ZM76.3359 14.5635C77.7284 14.1677 79.1753 13.9688 80.6797 13.9688V11.9688C78.9965 11.9688 77.3653 12.1917 75.7891 12.6397L76.3359 14.5635ZM80.6797 13.9688C82.184 13.9688 83.6309 14.1677 85.0235 14.5635L85.5703 12.6397C83.9941 12.1917 82.3628 11.9688 80.6797 11.9688V13.9688ZM85.0329 14.5661C86.4359 14.9501 87.7372 15.4948 88.9401 16.199L89.9505 14.4729C88.5909 13.6771 87.1266 13.0656 85.5609 12.637L85.0329 14.5661ZM88.9401 16.199C90.1468 16.9053 91.251 17.7589 92.2538 18.7618L93.668 17.3476C92.5459 16.2254 91.3063 15.2666 89.9505 14.4729L88.9401 16.199ZM92.2538 18.7618C93.2567 19.7647 94.1103 20.8688 94.8167 22.0755L96.5427 21.0651C95.749 19.7093 94.7902 18.4697 93.668 17.3476L92.2538 18.7618ZM94.8167 22.0755C95.5208 23.2784 96.0656 24.5797 96.4495 25.9827L98.3786 25.4548C97.9501 23.889 97.3386 22.4247 96.5427 21.0651L94.8167 22.0755ZM96.4522 25.9921C96.8479 27.3847 97.0469 28.8316 97.0469 30.3359H99.0469C99.0469 28.6528 98.8239 27.0216 98.376 25.4454L96.4522 25.9921ZM92.3672 30.3359C92.3672 28.7358 92.06 27.217 91.4409 25.7896L89.606 26.5854C90.1119 27.7518 90.3672 28.9986 90.3672 30.3359H92.3672ZM91.4426 25.7936C90.8315 24.3678 89.9939 23.1251 88.9279 22.0762L87.5252 23.5019C88.3967 24.3593 89.0903 25.3822 89.6043 26.5814L91.4426 25.7936ZM88.9394 22.0877C87.8905 21.0217 86.6478 20.1841 85.222 19.573L84.4342 21.4113C85.6334 21.9253 86.6563 22.6189 87.5137 23.4904L88.9394 22.0877ZM85.226 19.5748C83.7987 18.9557 82.2799 18.6484 80.6797 18.6484V20.6484C82.017 20.6484 83.2638 20.9037 84.4302 21.4096L85.226 19.5748ZM80.6797 18.6484C79.0654 18.6484 77.5386 18.9551 76.1099 19.5748L76.9057 21.4096C78.0708 20.9043 79.3252 20.6484 80.6797 20.6484V18.6484ZM76.1099 19.5748C74.7014 20.1857 73.4628 21.0214 72.4023 22.082L73.8165 23.4962C74.6935 22.6192 75.7205 21.9237 76.9057 21.4096L76.1099 19.5748ZM72.408 22.0762C71.342 23.1251 70.5044 24.3678 69.8934 25.7936L71.7316 26.5814C72.2456 25.3822 72.9393 24.3593 73.8107 23.5019L72.408 22.0762ZM69.8951 25.7896C69.276 27.217 68.9688 28.7358 68.9688 30.3359H70.9688C70.9688 28.9986 71.224 27.7518 71.7299 26.5854L69.8951 25.7896ZM68.9688 30.3359C68.9688 31.9361 69.276 33.4549 69.8951 34.8823L71.7299 34.0865C71.224 32.9201 70.9688 31.6733 70.9688 30.3359H68.9688ZM69.8969 34.8864C70.5082 36.2789 71.3438 37.508 72.4023 38.5665L73.8165 37.1523C72.9375 36.2733 72.2418 35.2523 71.7281 34.0824L69.8969 34.8864ZM72.4023 38.5665C73.4628 39.627 74.7014 40.4628 76.1099 41.0737L76.9057 39.2388C75.7205 38.7247 74.6935 38.0293 73.8165 37.1523L72.4023 38.5665ZM76.1099 41.0737C77.5386 41.6934 79.0654 42 80.6797 42V40C79.3252 40 78.0708 39.7441 76.9057 39.2388L76.1099 41.0737ZM80.6797 42C82.2799 42 83.7987 41.6928 85.226 41.0737L84.4302 39.2388C83.2638 39.7447 82.017 40 80.6797 40V42ZM85.222 41.0754C86.6478 40.4643 87.8905 39.6268 88.9394 38.5607L87.5137 37.158C86.6563 38.0295 85.6334 38.7232 84.4342 39.2371L85.222 41.0754ZM88.9337 38.5665C89.9922 37.508 90.8277 36.2789 91.4391 34.8864L89.6078 34.0824C89.0942 35.2523 88.3984 36.2733 87.5195 37.1523L88.9337 38.5665ZM91.4409 34.8823C92.06 33.4549 92.3672 31.9361 92.3672 30.3359H90.3672C90.3672 31.6733 90.1119 32.9201 89.606 34.0865L91.4409 34.8823ZM108.195 47V48H109.195V47H108.195ZM101.797 47H100.797V48H101.797V47ZM101.797 21.8984V20.8984H100.797V21.8984H101.797ZM103.344 21.8984L104.16 21.3202L103.861 20.8984H103.344V21.8984ZM105.453 24.875L104.637 25.4532L105.29 26.3746L106.126 25.6149L105.453 24.875ZM108.969 22.7188L109.325 23.6533L109.334 23.6495L108.969 22.7188ZM118.695 21.9453H119.695V20.9453H118.695V21.9453ZM118.695 28.3203V29.3203H119.695V28.3203H118.695ZM108.195 46H101.797V48H108.195V46ZM102.797 47V21.8984H100.797V47H102.797ZM101.797 22.8984H103.344V20.8984H101.797V22.8984ZM102.528 22.4766L104.637 25.4532L106.269 24.2968L104.16 21.3202L102.528 22.4766ZM106.126 25.6149C107.064 24.7622 108.128 24.1091 109.325 23.6532L108.613 21.7843C107.184 22.3284 105.905 23.1128 104.78 24.1351L106.126 25.6149ZM109.334 23.6495C110.531 23.1795 111.766 22.9453 113.047 22.9453V20.9453C111.515 20.9453 110.032 21.2267 108.603 21.788L109.334 23.6495ZM113.047 22.9453H118.695V20.9453H113.047V22.9453ZM117.695 21.9453V28.3203H119.695V21.9453H117.695ZM118.695 27.3203H113.047V29.3203H118.695V27.3203ZM113.047 27.3203C112.248 27.3203 111.482 27.4697 110.76 27.7737L111.536 29.6169C112.002 29.4209 112.502 29.3203 113.047 29.3203V27.3203ZM110.76 27.7737C110.052 28.0718 109.427 28.4867 108.894 29.0195L110.309 30.4337C110.651 30.0914 111.057 29.8189 111.536 29.6169L110.76 27.7737ZM108.894 29.0195C108.362 29.5522 107.947 30.1774 107.649 30.8854L109.492 31.6615C109.694 31.182 109.966 30.7759 110.309 30.4337L108.894 29.0195ZM107.649 30.8854C107.345 31.6072 107.195 32.3725 107.195 33.1719H109.195C109.195 32.6275 109.296 32.1271 109.492 31.6615L107.649 30.8854ZM107.195 33.1719V47H109.195V33.1719H107.195ZM143.047 43.8125L143.754 44.5196L143.759 44.5148L143.047 43.8125ZM138.969 46.5078L138.589 45.5826L138.586 45.5839L138.969 46.5078ZM128.984 46.4844L128.594 47.405L128.597 47.4064L128.984 46.4844ZM124.906 43.7422L124.194 44.4445L124.199 44.4493L124.906 43.7422ZM122.164 39.5703L121.24 39.9524L121.241 39.9556L122.164 39.5703ZM121.156 11.9141V10.9141H120.156V11.9141H121.156ZM127.578 11.9141H128.578V10.9141H127.578V11.9141ZM127.578 23.6328H126.578V26.5241L128.364 24.2506L127.578 23.6328ZM128.82 22.4609L128.254 21.6369L128.248 21.6411L128.242 21.6454L128.82 22.4609ZM130.414 21.6172L130.06 20.6819L130.052 20.6852L130.414 21.6172ZM132.195 21.125L132.372 22.1093L132.384 22.1071L132.396 22.1046L132.195 21.125ZM138.969 21.9453L138.57 22.8626L138.582 22.8673L138.969 21.9453ZM145.789 28.9297L144.865 29.3118L144.866 29.3149L145.789 28.9297ZM139.836 31.5312L138.904 31.8937L138.908 31.9042L138.912 31.9146L139.836 31.5312ZM136.438 27.9219L136.028 28.8342L136.035 28.8372L136.438 27.9219ZM131.492 27.9922L131.932 28.8903L131.939 28.8866L131.492 27.9922ZM129.477 29.5156L130.211 30.1947L130.219 30.1856L129.477 29.5156ZM128.117 31.6953L129.044 32.0698L129.047 32.0637L128.117 31.6953ZM131.492 40.5312L131.067 41.4365L131.078 41.4417L131.089 41.4466L131.492 40.5312ZM136.438 40.5312L136.847 41.4436L136.855 41.4397L136.438 40.5312ZM139.836 36.9219L138.912 36.5385L138.909 36.546L138.906 36.5535L139.836 36.9219ZM145.797 34.2266C145.797 36.0799 145.481 37.7449 144.865 39.2351L146.713 39.9993C147.441 38.2394 147.797 36.3108 147.797 34.2266H145.797ZM144.865 39.2351C144.239 40.7489 143.394 42.0364 142.335 43.1102L143.759 44.5148C145.012 43.2448 145.995 41.7355 146.713 39.9993L144.865 39.2351ZM142.34 43.1054C141.28 44.1648 140.033 44.9905 138.589 45.5826L139.348 47.4331C141.029 46.7438 142.501 45.7727 143.754 44.5196L142.34 43.1054ZM138.586 45.5839C137.168 46.1711 135.635 46.4688 133.977 46.4688V48.4688C135.881 48.4688 137.676 48.1257 139.351 47.4317L138.586 45.5839ZM133.977 46.4688C132.338 46.4688 130.806 46.165 129.372 45.5624L128.597 47.4064C130.287 48.1163 132.084 48.4688 133.977 48.4688V46.4688ZM129.375 45.5638C127.945 44.957 126.693 44.1148 125.613 43.0351L124.199 44.4493C125.463 45.7133 126.93 46.6993 128.594 47.405L129.375 45.5638ZM125.618 43.0398C124.557 41.9645 123.712 40.6833 123.087 39.1851L121.241 39.9556C121.96 41.6761 122.943 43.1761 124.194 44.4445L125.618 43.0398ZM123.088 39.1882C122.471 37.6962 122.156 36.0464 122.156 34.2266H120.156C120.156 36.2818 120.513 38.1945 121.24 39.9524L123.088 39.1882ZM122.156 34.2266V11.9141H120.156V34.2266H122.156ZM121.156 12.9141H127.578V10.9141H121.156V12.9141ZM126.578 11.9141V23.6328H128.578V11.9141H126.578ZM128.364 24.2506C128.645 23.8936 128.988 23.5684 129.399 23.2764L128.242 21.6454C127.684 22.041 127.199 22.497 126.792 23.015L128.364 24.2506ZM129.387 23.285C129.824 22.9847 130.286 22.7398 130.777 22.5492L130.052 20.6852C129.417 20.9321 128.817 21.2496 128.254 21.6369L129.387 23.285ZM130.768 22.5525C131.289 22.3555 131.823 22.2078 132.372 22.1093L132.019 20.1407C131.349 20.2609 130.696 20.4414 130.06 20.6819L130.768 22.5525ZM132.396 22.1046C132.944 21.9921 133.471 21.9375 133.977 21.9375V19.9375C133.326 19.9375 132.665 20.0079 131.994 20.1454L132.396 22.1046ZM133.977 21.9375C135.629 21.9375 137.156 22.2483 138.57 22.8625L139.367 21.0281C137.688 20.2986 135.887 19.9375 133.977 19.9375V21.9375ZM138.582 22.8673C140.023 23.4728 141.27 24.3194 142.33 25.4086L143.763 24.0133C142.511 22.7275 141.039 21.7303 139.356 21.0233L138.582 22.8673ZM142.33 25.4086C143.393 26.4996 144.239 27.7969 144.865 29.3118L146.713 28.5476C145.996 26.8124 145.014 25.2973 143.763 24.0133L142.33 25.4086ZM144.866 29.3149C145.482 30.7904 145.797 32.4234 145.797 34.2266H147.797C147.797 32.186 147.44 30.2878 146.712 28.5444L144.866 29.3149ZM141.352 34.2266C141.352 33.1369 141.158 32.107 140.76 31.1479L138.912 31.9146C139.202 32.6117 139.352 33.3787 139.352 34.2266H141.352ZM140.768 31.1688C140.396 30.2136 139.876 29.374 139.202 28.6633L137.751 30.0398C138.233 30.5479 138.619 31.1614 138.904 31.8937L140.768 31.1688ZM139.202 28.6633C138.531 27.956 137.741 27.4029 136.84 27.0066L136.035 28.8372C136.696 29.1283 137.266 29.5284 137.751 30.0398L139.202 28.6633ZM136.847 27.0096C135.947 26.6056 134.987 26.4062 133.977 26.4062V28.4062C134.717 28.4062 135.397 28.5507 136.028 28.8341L136.847 27.0096ZM133.977 26.4062C132.947 26.4062 131.965 26.6376 131.045 27.0978L131.939 28.8866C132.582 28.5655 133.257 28.4062 133.977 28.4062V26.4062ZM131.052 27.0941C130.171 27.5259 129.397 28.1116 128.734 28.8457L130.219 30.1856C130.713 29.6384 131.282 29.2085 131.932 28.8903L131.052 27.0941ZM128.742 28.8366C128.077 29.5563 127.559 30.3895 127.188 31.3269L129.047 32.0637C129.332 31.3449 129.72 30.7249 130.211 30.1947L128.742 28.8366ZM127.19 31.3208C126.814 32.2522 126.625 33.223 126.625 34.2266H128.625C128.625 33.4801 128.764 32.7635 129.044 32.0698L127.19 31.3208ZM126.625 34.2266C126.625 35.3103 126.809 36.335 127.188 37.2902L129.047 36.5535C128.769 35.8525 128.625 35.0803 128.625 34.2266H126.625ZM127.188 37.2902C127.56 38.2298 128.08 39.0589 128.751 39.7664L130.202 38.3899C129.717 37.8786 129.331 37.2702 129.047 36.5535L127.188 37.2902ZM128.751 39.7664C129.416 40.4668 130.19 41.0245 131.067 41.4365L131.917 39.626C131.264 39.3192 130.694 38.9082 130.202 38.3899L128.751 39.7664ZM131.089 41.4466C132.001 41.8476 132.966 42.0469 133.977 42.0469V40.0469C133.237 40.0469 132.546 39.9024 131.895 39.6159L131.089 41.4466ZM133.977 42.0469C134.987 42.0469 135.947 41.8476 136.847 41.4435L136.028 39.619C135.397 39.9024 134.717 40.0469 133.977 40.0469V42.0469ZM136.855 41.4397C137.749 41.0285 138.534 40.4703 139.202 39.7664L137.751 38.3899C137.263 38.9047 136.688 39.3153 136.02 39.6228L136.855 41.4397ZM139.202 39.7664C139.873 39.0589 140.393 38.2298 140.766 37.2902L138.906 36.5535C138.622 37.2702 138.236 37.8786 137.751 38.3899L139.202 39.7664ZM140.76 37.3053C141.158 36.3461 141.352 35.3162 141.352 34.2266H139.352C139.352 35.0744 139.202 35.8414 138.912 36.5385L140.76 37.3053ZM157.555 16.7422L156.644 16.3284L156.639 16.3399L156.634 16.3516L157.555 16.7422ZM156.641 18.1016L157.333 18.8229L157.341 18.8159L157.348 18.8087L156.641 18.1016ZM155.258 19.0156L155.648 19.9362L155.655 19.9334L155.661 19.9305L155.258 19.0156ZM151.906 19.0156L151.492 19.926L151.509 19.9334L151.526 19.9403L151.906 19.0156ZM150.547 18.1016L149.825 18.7941L149.84 18.8088L149.854 18.8229L150.547 18.1016ZM149.633 16.7422L148.712 17.1327L148.717 17.1444L148.722 17.156L149.633 16.7422ZM149.633 13.4375L148.718 13.0339L148.715 13.0404L148.712 13.047L149.633 13.4375ZM151.906 11.1641L152.297 12.0846L152.303 12.0819L152.31 12.079L151.906 11.1641ZM155.258 11.1641L154.844 12.0744L154.86 12.0819L154.877 12.0887L155.258 11.1641ZM156.641 12.0781L155.934 12.7852L155.941 12.7924L155.948 12.7995L156.641 12.0781ZM157.555 13.4375L156.63 13.8182L156.637 13.8349L156.644 13.8513L157.555 13.4375ZM156.805 47V48H157.805V47H156.805ZM150.359 47H149.359V48H150.359V47ZM150.359 21.8984V20.8984H149.359V21.8984H150.359ZM156.805 21.8984H157.805V20.8984H156.805V21.8984ZM156.906 15.0781C156.906 15.5362 156.817 15.949 156.644 16.3284L158.465 17.156C158.761 16.5041 158.906 15.8076 158.906 15.0781H156.906ZM156.634 16.3516C156.465 16.7507 156.232 17.0959 155.934 17.3945L157.348 18.8087C157.83 18.3259 158.207 17.7649 158.475 17.1327L156.634 16.3516ZM155.948 17.3802C155.648 17.6686 155.286 17.9101 154.854 18.1007L155.661 19.9305C156.292 19.6524 156.852 19.2845 157.333 18.8229L155.948 17.3802ZM154.867 18.095C154.482 18.2583 154.061 18.3438 153.594 18.3438V20.3438C154.314 20.3438 155.002 20.2105 155.648 19.9362L154.867 18.095ZM153.594 18.3438C153.126 18.3438 152.693 18.2583 152.287 18.0909L151.526 19.9403C152.182 20.2105 152.874 20.3438 153.594 20.3438V18.3438ZM152.32 18.1053C151.903 17.9155 151.545 17.6733 151.239 17.3802L149.854 18.8229C150.33 19.2798 150.879 19.647 151.492 19.926L152.32 18.1053ZM151.268 17.409C150.975 17.1037 150.733 16.7459 150.543 16.3284L148.722 17.156C149.001 17.7698 149.369 18.3182 149.825 18.7941L151.268 17.409ZM150.553 16.3516C150.39 15.9669 150.305 15.5459 150.305 15.0781H148.305C148.305 15.7979 148.438 16.4863 148.712 17.1327L150.553 16.3516ZM150.305 15.0781C150.305 14.6298 150.389 14.2161 150.553 13.828L148.712 13.047C148.439 13.6901 148.305 14.3702 148.305 15.0781H150.305ZM150.548 13.8411C150.737 13.4123 150.974 13.0649 151.254 12.7852L149.84 11.371C149.369 11.8414 148.997 12.4002 148.718 13.0339L150.548 13.8411ZM151.254 12.7852C151.552 12.4867 151.898 12.2539 152.297 12.0846L151.516 10.2435C150.884 10.5117 150.323 10.8883 149.84 11.371L151.254 12.7852ZM152.31 12.079C152.711 11.902 153.136 11.8125 153.594 11.8125V9.8125C152.864 9.8125 152.164 9.95738 151.503 10.2491L152.31 12.079ZM153.594 11.8125C154.052 11.8125 154.465 11.902 154.844 12.0744L155.672 10.2537C155.02 9.9574 154.323 9.8125 153.594 9.8125V11.8125ZM154.877 12.0887C155.291 12.2593 155.64 12.4917 155.934 12.7852L157.348 11.371C156.86 10.8833 156.287 10.5064 155.639 10.2394L154.877 12.0887ZM155.948 12.7995C156.232 13.0725 156.461 13.4075 156.63 13.8182L158.479 13.0568C158.211 12.405 157.83 11.8337 157.333 11.3567L155.948 12.7995ZM156.644 13.8513C156.818 14.2342 156.906 14.6397 156.906 15.0781H158.906C158.906 14.3603 158.76 13.672 158.465 13.0237L156.644 13.8513ZM156.805 46H150.359V48H156.805V46ZM151.359 47V21.8984H149.359V47H151.359ZM150.359 22.8984H156.805V20.8984H150.359V22.8984ZM155.805 21.8984V47H157.805V21.8984H155.805ZM169.93 46.1328L169.529 47.0493L169.538 47.053L169.93 46.1328ZM166.344 43.7188L165.631 44.4204L165.637 44.4259L165.642 44.4312L166.344 43.7188ZM163.93 40.1328L163.009 40.5242L163.013 40.5331L163.93 40.1328ZM163.062 28.3203H164.062V27.3203H163.062V28.3203ZM159.945 28.3203H158.945V29.3203H159.945V28.3203ZM159.945 21.9453V20.9453H158.945V21.9453H159.945ZM163.062 21.9453V22.9453H164.062V21.9453H163.062ZM163.062 11.9141V10.9141H162.062V11.9141H163.062ZM169.438 11.9141H170.438V10.9141H169.438V11.9141ZM169.438 21.9453H168.438V22.9453H169.438V21.9453ZM179.141 21.9453H180.141V20.9453H179.141V21.9453ZM179.141 28.3203V29.3203H180.141V28.3203H179.141ZM169.438 28.3203V27.3203H168.438V28.3203H169.438ZM169.812 37.6719L168.891 38.0599L168.895 38.0688L169.812 37.6719ZM172.391 40.25L171.982 41.1628L171.992 41.1673L172.003 41.1716L172.391 40.25ZM179.141 40.625H180.141V39.625H179.141V40.625ZM179.141 47V48H180.141V47H179.141ZM174.289 46C172.87 46 171.551 45.7356 170.321 45.2126L169.538 47.053C171.027 47.6863 172.614 48 174.289 48V46ZM170.33 45.2164C169.08 44.6704 167.987 43.9339 167.045 43.0063L165.642 44.4312C166.763 45.5348 168.061 46.4077 169.529 47.0492L170.33 45.2164ZM167.056 43.0171C166.129 42.0751 165.392 40.9827 164.846 39.7325L163.013 40.5331C163.655 42.0017 164.528 43.2999 165.631 44.4204L167.056 43.0171ZM164.85 39.7414C164.327 38.5116 164.062 37.1923 164.062 35.7734H162.062C162.062 37.4483 162.376 39.0352 163.009 40.5242L164.85 39.7414ZM164.062 35.7734V28.3203H162.062V35.7734H164.062ZM163.062 27.3203H159.945V29.3203H163.062V27.3203ZM160.945 28.3203V21.9453H158.945V28.3203H160.945ZM159.945 22.9453H163.062V20.9453H159.945V22.9453ZM164.062 21.9453V11.9141H162.062V21.9453H164.062ZM163.062 12.9141H169.438V10.9141H163.062V12.9141ZM168.438 11.9141V21.9453H170.438V11.9141H168.438ZM169.438 22.9453H179.141V20.9453H169.438V22.9453ZM178.141 21.9453V28.3203H180.141V21.9453H178.141ZM179.141 27.3203H169.438V29.3203H179.141V27.3203ZM168.438 28.3203V35.7734H170.438V28.3203H168.438ZM168.438 35.7734C168.438 36.5728 168.587 37.3381 168.891 38.0599L170.734 37.2838C170.538 36.8182 170.438 36.3179 170.438 35.7734H168.438ZM168.895 38.0688C169.194 38.7605 169.608 39.3741 170.137 39.9024L171.551 38.4882C171.204 38.1415 170.931 37.7395 170.73 37.275L168.895 38.0688ZM170.137 39.9024C170.665 40.4305 171.283 40.85 171.982 41.1628L172.799 39.3372C172.311 39.1188 171.898 38.8351 171.551 38.4882L170.137 39.9024ZM172.003 41.1716C172.724 41.4756 173.49 41.625 174.289 41.625V39.625C173.745 39.625 173.244 39.5244 172.779 39.3284L172.003 41.1716ZM174.289 41.625H179.141V39.625H174.289V41.625ZM178.141 40.625V47H180.141V40.625H178.141ZM179.141 46H174.289V48H179.141V46Z" fill="black"/>
<circle cx="30" cy="30" r="16" stroke="black" stroke-width="8"/>
<line x1="7.34254" y1="50.0104" x2="52.3425" y2="10.0104" stroke="black" stroke-width="8"/>
</g>
<defs>
<filter id="filter0_d_14_15" x="0.685089" y="7.02072" width="182.456" height="53.9793" filterUnits="userSpaceOnUse" color-interpolation-filters="sRGB">
<feFlood flood-opacity="0" result="BackgroundImageFix"/>
<feColorMatrix in="SourceAlpha" type="matrix" values="0 0 0 0 0 0 0 0 0 0 0 0 0 0 0 0 0 0 127 0" result="hardAlpha"/>
<feOffset dy="4"/>
<feGaussianBlur stdDeviation="2"/>
<feComposite in2="hardAlpha" operator="out"/>
<feColorMatrix type="matrix" values="0 0 0 0 0 0 0 0 0 0 0 0 0 0 0 0 0 0 0.25 0"/>
<feBlend mode="normal" in2="BackgroundImageFix" result="effect1_dropShadow_14_15"/>
<feBlend mode="normal" in="SourceGraphic" in2="effect1_dropShadow_14_15" result="shape"/>
</filter>
</defs>
</svg>
