<svg width="228" height="60" viewBox="0 0 228 60" fill="none" xmlns="http://www.w3.org/2000/svg">
<path d="M150.03 30.9467H159.59V34.2111H153.644V40.5767H158.308V43.8411H153.644V53.7976H150.03V30.9467Z" fill="#323D31"/>
<path d="M161.322 30.9467H164.936V53.7976H161.322V30.9467Z" fill="#323D31"/>
<path d="M170.468 34.2111H166.69V30.9467H177.859V34.2111H174.081V53.7976H170.468V34.2111Z" fill="#323D31"/>
<path d="M179.609 30.9467H184.142L187.657 44.6246H187.723V30.9467H190.942V53.7976H187.23L182.894 37.1164H182.828V53.7976H179.609V30.9467Z" fill="#323D31"/>
<path d="M193.628 30.9467H203.483V34.2111H197.242V40.2503H202.202V43.5147H197.242V50.5332H203.483V53.7976H193.628V30.9467Z" fill="#323D31"/>
<path d="M210.324 54.124C208.572 54.124 207.247 53.6344 206.349 52.6551C205.451 51.654 205.002 50.2285 205.002 48.3787V47.0729H208.419V48.6398C208.419 50.1197 209.043 50.8596 210.291 50.8596C210.904 50.8596 211.364 50.6855 211.671 50.3373C211.999 49.9674 212.164 49.3798 212.164 48.5745C212.164 47.617 211.945 46.7791 211.507 46.0609C211.069 45.321 210.258 44.4396 209.076 43.4168C207.586 42.111 206.546 40.9358 205.955 39.8912C205.363 38.8248 205.068 37.6279 205.068 36.3003C205.068 34.494 205.528 33.1012 206.447 32.1219C207.367 31.1208 208.703 30.6202 210.455 30.6202C212.185 30.6202 213.489 31.1208 214.365 32.1219C215.262 33.1012 215.711 34.5158 215.711 36.3656V37.3123H212.295V36.1371C212.295 35.3536 212.142 34.7878 211.835 34.4396C211.528 34.0696 211.079 33.8847 210.488 33.8847C209.284 33.8847 208.681 34.6137 208.681 36.0718C208.681 36.8988 208.9 37.6714 209.338 38.3896C209.798 39.1077 210.62 39.9782 211.802 41.0011C213.313 42.3069 214.354 43.4929 214.923 44.5593C215.492 45.6257 215.777 46.877 215.777 48.3134C215.777 50.185 215.306 51.6213 214.365 52.6224C213.445 53.6235 212.098 54.124 210.324 54.124Z" fill="#323D31"/>
<path d="M222.547 54.124C220.795 54.124 219.47 53.6344 218.572 52.6551C217.674 51.654 217.225 50.2285 217.225 48.3787V47.0729H220.641V48.6398C220.641 50.1197 221.266 50.8596 222.514 50.8596C223.127 50.8596 223.587 50.6855 223.894 50.3373C224.222 49.9674 224.386 49.3798 224.386 48.5745C224.386 47.617 224.167 46.7791 223.729 46.0609C223.291 45.321 222.481 44.4396 221.298 43.4168C219.809 42.111 218.769 40.9358 218.178 39.8912C217.586 38.8248 217.291 37.6279 217.291 36.3003C217.291 34.494 217.751 33.1012 218.67 32.1219C219.59 31.1208 220.926 30.6202 222.678 30.6202C224.408 30.6202 225.711 31.1208 226.587 32.1219C227.485 33.1012 227.934 34.5158 227.934 36.3656V37.3123H224.518V36.1371C224.518 35.3536 224.365 34.7878 224.058 34.4396C223.751 34.0696 223.302 33.8847 222.711 33.8847C221.506 33.8847 220.904 34.6137 220.904 36.0718C220.904 36.8988 221.123 37.6714 221.561 38.3896C222.021 39.1077 222.842 39.9782 224.025 41.0011C225.536 42.3069 226.576 43.4929 227.146 44.5593C227.715 45.6257 228 46.877 228 48.3134C228 50.185 227.529 51.6213 226.587 52.6224C225.668 53.6235 224.321 54.124 222.547 54.124Z" fill="#323D31"/>
<path d="M37.3186 38.5201C37.3186 43.1338 35.3913 47.0076 31.5368 50.1415C27.7261 53.2318 22.8423 54.7769 16.8854 54.7769C13.6003 54.7769 11.1036 54.2981 9.39535 53.3406C9.22015 53.2535 9.02304 53.21 8.80404 53.21C8.58503 53.21 7.77471 53.4494 6.37307 53.9282C4.97143 54.407 3.5479 54.6464 2.10246 54.6464C0.700819 54.6464 0 54.2329 0 53.4059C0 52.2742 1.37974 49.3362 4.13921 44.5919C6.89869 39.8041 9.35155 36.5832 11.4978 34.9293C12.4176 34.2329 13.3156 33.8847 14.1916 33.8847C15.0676 33.8847 15.5056 34.124 15.5056 34.6028C15.5056 34.6899 15.199 35.2339 14.5858 36.235C14.0164 37.1926 13.4251 38.4766 12.8118 40.087C12.2424 41.6975 11.9577 43.0903 11.9577 44.2655C11.9577 45.3972 12.0672 46.3547 12.2862 47.1382C12.549 47.9216 13.1623 48.7269 14.1259 49.5539C15.1333 50.3373 16.3378 50.729 17.7395 50.729C19.1849 50.729 20.5209 50.5549 21.7473 50.2067C23.0175 49.8585 24.2659 49.3145 25.4923 48.5745C26.7187 47.8346 27.7261 46.7465 28.5146 45.3101C29.303 43.8738 29.6972 42.2198 29.6972 40.3482C29.6972 38.4331 29.1059 36.4962 27.9233 34.5375C26.7406 32.5789 25.4485 30.9249 24.0468 29.5756C22.6452 28.1828 21.3531 26.6159 20.1704 24.8749C18.9878 23.0903 18.3965 21.3711 18.3965 19.7171C18.3965 18.0196 18.8345 16.4527 19.7105 15.0163C20.6304 13.58 21.7473 12.4483 23.0613 11.6213C24.4192 10.7508 25.9522 10.0326 27.6604 9.46681C30.5513 8.50925 33.1137 8.03047 35.3475 8.03047C37.5814 8.03047 39.224 8.13928 40.2752 8.35691C41.3702 8.53101 42.1805 8.70512 42.7061 8.87922C43.2756 9.05332 43.626 9.14037 43.7574 9.14037C43.8888 9.14037 44.064 9.07508 44.283 8.94451C45.597 8.20457 47.0206 7.8346 48.5536 7.8346C50.0866 7.8346 50.8532 8.20457 50.8532 8.94451C50.8532 10.1632 49.3858 12.9053 46.4511 17.1708C43.5603 21.3928 41.3921 23.5038 39.9467 23.5038C38.764 23.5038 38.1727 23.2427 38.1727 22.7203C38.1727 22.6333 38.326 22.3286 38.6326 21.8063C39.5963 20.0653 40.0781 18.0849 40.0781 15.8651C40.0781 14.6464 39.5525 13.7106 38.5012 13.0577C37.45 12.3613 36.355 12.0131 35.2161 12.0131C34.1211 12.0131 32.9823 12.1872 31.7997 12.5354C30.6608 12.8836 29.5001 13.58 28.3175 14.6246C27.1786 15.6692 26.6092 16.9314 26.6092 18.4113C26.6092 19.8477 27.1567 21.3711 28.2518 22.9815C29.3906 24.5484 30.617 26.0065 31.9311 27.3558C33.2889 28.6616 34.5153 30.3373 35.6104 32.383C36.7492 34.3852 37.3186 36.4309 37.3186 38.5201Z" fill="#323D31"/>
<path d="M71.3732 12.0783L74.5925 11.9478C75.0306 11.9478 75.2496 12.0348 75.2496 12.2089C75.2496 12.383 75.2058 12.6007 75.1182 12.8618C75.0306 13.123 74.8335 13.4494 74.5268 13.8411C74.264 14.2329 73.9355 14.5811 73.5413 14.8857C72.4901 15.7127 71.176 16.1262 69.5992 16.1262C68.0662 16.1262 66.9273 16.1698 66.1827 16.2568C65.4819 16.3439 64.8687 16.5615 64.3431 16.9097C63.8175 17.2579 63.467 17.519 63.2918 17.6931C63.1166 17.8672 62.81 18.3025 62.372 18.9989C61.934 19.6953 61.6274 20.1741 61.4522 20.4353C59.1307 23.6561 55.3638 29.728 50.1515 38.6507C44.983 47.5734 41.7636 54.4723 40.4933 59.3471C40.3619 59.7824 39.9458 60 39.245 60C38.588 60 37.6682 59.4342 36.4855 58.3025C35.3029 57.1708 34.7116 56.0174 34.7116 54.8422C34.7116 53.667 36.4855 50.1632 40.0334 44.3308C43.6251 38.4984 47.2168 32.7748 50.8085 27.16C54.4002 21.5016 56.196 18.3678 56.196 17.7584C56.196 17.1055 55.9332 16.7138 55.4076 16.5832C54.882 16.4091 53.9622 16.3221 52.6482 16.3221H50.48C49.9106 16.3221 49.6259 16.0609 49.6259 15.5386C49.6259 15.0163 49.8668 14.4723 50.3486 13.9064C50.8742 13.2971 51.6407 12.7748 52.6482 12.3395C53.6994 11.9042 54.7506 11.469 55.8018 11.0337C56.8969 10.5985 58.2985 9.61915 60.0068 8.09576C61.7588 6.57236 63.5108 4.61371 65.2629 2.21981C66.3579 0.739935 68.2414 0 70.9132 0C71.8331 0 72.293 0.282916 72.293 0.848749C72.293 1.19695 71.3075 2.78564 69.3364 5.6148C67.3654 8.44396 66.3798 10.2285 66.3798 10.9684C66.3798 11.6649 67.0368 12.0131 68.3509 12.0131C68.8765 12.0566 69.8839 12.0783 71.3732 12.0783Z" fill="#323D31"/>
<path d="M72.9474 45.506C72.1152 45.506 71.4801 45.0925 71.0421 44.2655C70.6041 43.395 70.3851 42.568 70.3851 41.7845C70.3851 40.9576 70.6479 40.0218 71.1735 38.9771C71.1735 38.4113 70.9545 38.1284 70.5165 38.1284C68.8082 38.1284 66.8591 39.1512 64.669 41.197C62.479 43.1991 60.6393 45.2884 59.1501 47.4646C57.6608 49.5974 56.303 51.7519 55.0766 53.9282C54.3319 55.2339 52.7989 55.8868 50.4774 55.8868C49.2948 55.8868 48.7035 55.6257 48.7035 55.1034C48.7035 53.9282 50.8497 49.5539 55.1423 41.9804C59.4786 34.3634 62.3476 30.2938 63.7492 29.7715C64.7128 29.2927 65.7859 29.0533 66.9686 29.0533C68.195 29.0533 68.8082 29.3145 68.8082 29.8368C68.8082 30.3156 68.3045 31.2731 67.2971 32.7095C66.2897 34.1458 65.7859 35.0598 65.7859 35.4516C65.7859 35.8433 65.9392 36.0392 66.2458 36.0392C66.4211 36.0392 66.9029 35.778 67.6913 35.2557C69.6185 33.8194 71.9838 32.3395 74.7871 30.8161L75.3784 30.0326C76.4296 28.7269 77.9408 28.074 79.9118 28.074C81.9267 28.074 82.9341 28.4657 82.9341 29.2492C82.8465 29.4668 82.6275 29.815 82.2771 30.2938C78.8168 34.9946 75.904 39.9129 73.5387 45.049C73.3635 45.3536 73.1664 45.506 72.9474 45.506Z" fill="#323D31"/>
<path d="M78.7934 57.1273C78.1801 57.1273 77.5012 56.7356 76.7566 55.9521C76.012 55.2122 75.6397 54.2981 75.6397 53.21C75.6397 52.6007 77.0632 49.5321 79.9103 44.0043C82.8012 38.4331 84.2904 34.6681 84.378 32.7095C84.378 32.1001 84.7722 31.5343 85.5606 31.012C86.9623 30.185 89.0428 29.7715 91.8023 29.7715C92.3279 29.7715 92.8754 29.8803 93.4448 30.0979C94.0581 30.272 94.3647 30.5332 94.3647 30.8814C94.3647 31.0555 94.299 31.2078 94.1676 31.3384C92.5031 33.4276 90.0722 37.1926 86.8747 42.6333C83.6772 48.074 81.2681 52.4918 79.6475 55.8868C79.4285 56.7138 79.1438 57.1273 78.7934 57.1273ZM93.182 26.1153C91.2548 26.1153 90.2474 25.3536 90.1598 23.8302V23.765C90.1598 22.4592 90.7949 21.3928 92.0651 20.5658C93.3791 19.7388 94.6713 19.3254 95.9415 19.3254C97.8688 19.3254 98.8762 20.0871 98.9638 21.6104C98.9638 22.9162 98.3287 24.0044 97.0584 24.8749C95.7882 25.7018 94.4961 26.1153 93.182 26.1153Z" fill="#323D31"/>
<path d="M92.7914 56.6703C91.9154 56.6703 91.2803 56.3438 90.8861 55.691C90.5357 55.0816 90.3605 54.4287 90.3605 53.7323C90.3605 51.0773 90.9299 47.9434 92.0687 44.3308C93.2075 40.7182 94.3464 37.7584 95.4852 35.4516L97.1934 31.9913C97.0182 31.9913 97.0839 31.839 97.3905 31.5343C97.741 31.1861 98.0695 30.9032 98.3761 30.6855C99.2521 30.2067 100.194 29.9674 101.201 29.9674C102.252 29.9674 102.778 30.1415 102.778 30.4897C102.778 30.5767 102.581 30.9902 102.187 31.7301C101.793 32.4701 101.004 34.6464 99.8215 38.259C98.6827 41.8716 98.1133 44.5702 98.1133 46.3547C98.1133 48.1393 98.5513 49.0316 99.4273 49.0316C101.398 49.0316 103.742 47.16 106.457 43.4168C109.217 39.6736 110.597 36.7138 110.597 34.5375C109.458 34.1023 108.888 33.3624 108.888 32.3177C108.888 31.2296 109.304 30.1415 110.137 29.0533C111.013 27.9217 111.692 27.3558 112.173 27.3558C112.217 27.3558 112.546 27.4646 113.159 27.6823C113.816 27.8564 114.692 27.9434 115.787 27.9434C116.926 27.9434 117.933 27.8128 118.809 27.5517C119.685 27.2905 120.342 27.0511 120.78 26.8335C121.262 26.5724 121.569 26.4418 121.7 26.4418C122.051 26.4418 122.226 26.6594 122.226 27.0947C122.226 27.3123 122.073 27.8128 121.766 28.5963C121.459 29.3798 121.153 30.0326 120.846 30.555C119.97 31.9478 118.787 32.9271 117.298 33.4929C116.948 33.667 116.773 33.8629 116.773 34.0805C116.773 35.1687 116.444 36.3003 115.787 37.4755C113.816 41.2622 110.202 45.4189 104.946 49.9456C99.7339 54.4287 95.6823 56.6703 92.7914 56.6703Z" fill="#323D31"/>
<path d="M122.66 57.519C120.119 57.519 118.258 56.7573 117.075 55.2339C115.892 53.7541 115.301 51.926 115.301 49.7497C115.301 47.5299 115.783 45.2231 116.746 42.8292C117.71 40.3917 119.024 38.0413 120.688 35.778C122.397 33.5147 124.609 31.6213 127.324 30.0979C130.084 28.531 133.04 27.7476 136.194 27.7476C137.64 27.7476 138.735 28.2046 139.479 29.1186C140.224 29.9891 140.596 31.0337 140.596 32.2524C140.596 34.7769 139.698 37.1273 137.902 39.3036C136.107 41.4799 134.114 43.1338 131.923 44.2655C129.733 45.3972 127.784 46.05 126.076 46.2242C124.412 46.3547 123.295 46.6594 122.725 47.1382C122.156 47.617 121.871 48.5745 121.871 50.0109C121.871 51.4472 122.2 52.5354 122.857 53.2753C123.514 54.0152 124.171 54.5158 124.828 54.7769C125.485 55.0381 125.813 55.2992 125.813 55.5604C125.813 56.1697 125.485 56.6485 124.828 56.9967C124.171 57.3449 123.448 57.519 122.66 57.519ZM134.223 33.8847C134.223 32.5354 133.61 31.8607 132.383 31.8607C130.631 31.8607 128.682 33.0794 126.536 35.5169C124.433 37.9543 123.382 40.1523 123.382 42.111C123.382 42.5898 123.755 42.8292 124.499 42.8292C126.295 42.8292 128.354 41.9151 130.675 40.087C133.04 38.259 134.223 36.1915 134.223 33.8847Z" fill="#323D31"/>
</svg>
